<?xml version="1.0" encoding="utf-8"?>
<!-- Generator: Adobe Adobe Illustrator 24.2.0, SVG Export Plug-In . SVG Version: 6.00 Build 0)  -->
<svg version="1.1" id="XMLID_1_" xmlns="http://www.w3.org/2000/svg" xmlns:xlink="http://www.w3.org/1999/xlink" x="0px" y="0px"
	 width="400px" height="400px" viewBox="0 0 400 400" style="enable-background:new 0 0 400 400;" xml:space="preserve">
<style type="text/css">
	.st0{fill:#66BADE;}
	.st1{fill:#74C054;}
	.st2{fill:#E36781;}
	.st3{fill:#EB1C24;}
	.st4{fill:#90EE90;}
	.st5{fill:#677AE3;}
</style>
<g>
	<g>
		<path class="st4" d="M232.3,263.02c0-3.02-2.44-5.46-5.46-5.46c-3.01,0-5.46,2.44-5.46,5.46c0,3.01,2.45,5.46,5.46,5.46
			C229.85,268.48,232.3,266.04,232.3,263.02z"/>
		<path class="st4" d="M253.85,263.02c0-3.34-2.71-6.05-6.05-6.05c-3.34,0-6.05,2.71-6.05,6.05c0,3.34,2.71,6.05,6.05,6.05
			C251.14,269.07,253.85,266.36,253.85,263.02z"/>
		<path class="st4" d="M167.95,263.02c0-2.22-1.8-4.01-4.01-4.01c-2.22,0-4.01,1.8-4.01,4.01c0,2.22,1.8,4.01,4.01,4.01
			C166.16,267.03,167.95,265.24,167.95,263.02z"/>
		<path class="st4" d="M210.8,263.02c0-2.72-2.21-4.93-4.93-4.93c-2.72,0-4.93,2.21-4.93,4.93c0,2.72,2.21,4.93,4.93,4.93
			C208.59,267.95,210.8,265.74,210.8,263.02z"/>
		<path class="st4" d="M189.35,263.02c0-2.46-1.99-4.45-4.45-4.45c-2.46,0-4.45,1.99-4.45,4.45c0,2.46,1.99,4.45,4.45,4.45
			C187.36,267.47,189.35,265.48,189.35,263.02z"/>
		<path class="st4" d="M243.07,252.54c0-3.17-2.57-5.75-5.75-5.75c-3.17,0-5.75,2.57-5.75,5.75c0,3.17,2.57,5.75,5.75,5.75
			C240.49,258.29,243.07,255.71,243.07,252.54z"/>
		<path class="st4" d="M264.65,252.54c0-2.2-1.11-4.13-2.81-5.28c-1.02-0.69-2.24-1.09-3.56-1.09c-0.44,0-0.87,0.04-1.28,0.13
			c-2.9,0.59-5.09,3.16-5.09,6.24c0,3.08,2.18,5.65,5.09,6.24c0.41,0.08,0.84,0.13,1.28,0.13c1.32,0,2.55-0.4,3.56-1.09
			C263.54,256.67,264.65,254.74,264.65,252.54z"/>
		<path class="st4" d="M210.8,283.98c0-2.72-2.21-4.93-4.93-4.93c-2.72,0-4.93,2.21-4.93,4.93c0,2.72,2.21,4.93,4.93,4.93
			C208.59,288.92,210.8,286.71,210.8,283.98z"/>
		<path class="st4" d="M189.35,283.98c0-2.46-1.99-4.45-4.45-4.45c-2.46,0-4.45,1.99-4.45,4.45c0,2.46,1.99,4.45,4.45,4.45
			C187.36,288.43,189.35,286.44,189.35,283.98z"/>
		<path class="st4" d="M232.3,283.98c0-3.02-2.44-5.46-5.46-5.46c-3.01,0-5.46,2.44-5.46,5.46c0,3.02,2.45,5.46,5.46,5.46
			C229.85,289.45,232.3,287,232.3,283.98z"/>
		<path class="st4" d="M167.95,283.99c0-2.22-1.8-4.01-4.01-4.01c-2.22,0-4.01,1.8-4.01,4.01c0,2.22,1.8,4.02,4.01,4.02
			C166.16,288,167.95,286.2,167.95,283.99z"/>
		<path class="st4" d="M146.6,283.99c0-2-1.62-3.62-3.62-3.62c-2,0-3.62,1.62-3.62,3.62c0,2,1.62,3.62,3.62,3.62
			C144.98,287.61,146.6,285.99,146.6,283.99z"/>
		<path class="st4" d="M156.97,274.99c0.19-0.46,0.3-0.96,0.3-1.48c0-2.1-1.71-3.81-3.81-3.81s-3.81,1.71-3.81,3.81
			c0,0.53,0.11,1.03,0.3,1.48c0.19,0.46,0.47,0.87,0.82,1.21c0.69,0.69,1.64,1.12,2.7,1.12c1.05,0,2.01-0.43,2.7-1.12
			C156.5,275.85,156.78,275.44,156.97,274.99z"/>
		<path class="st4" d="M177.93,275.86c0.15-0.22,0.28-0.47,0.39-0.72c0.21-0.51,0.33-1.06,0.33-1.64c0-0.87-0.27-1.69-0.72-2.36
			c-0.76-1.12-2.04-1.86-3.5-1.86c-0.29,0-0.58,0.03-0.85,0.09c-0.82,0.17-1.56,0.58-2.14,1.15c-0.19,0.19-0.36,0.4-0.52,0.63
			c-0.3,0.45-0.52,0.96-0.64,1.51c-0.06,0.27-0.09,0.56-0.09,0.85c0,0.29,0.03,0.58,0.09,0.85c0.06,0.28,0.14,0.54,0.25,0.79
			c0.11,0.25,0.24,0.49,0.39,0.72c0.15,0.22,0.32,0.43,0.52,0.63c0.57,0.57,1.31,0.98,2.14,1.15c0.28,0.06,0.56,0.09,0.85,0.09
			c1.17,0,2.22-0.47,2.99-1.24C177.6,276.3,177.78,276.09,177.93,275.86z"/>
		<path class="st4" d="M199.7,275.32c0.24-0.56,0.37-1.18,0.37-1.82c0-2.58-2.1-4.68-4.68-4.68c-2.59,0-4.68,2.1-4.68,4.68
			c0,0.65,0.13,1.26,0.37,1.82c0.24,0.56,0.58,1.06,1,1.49c0.85,0.85,2.02,1.37,3.31,1.37c1.29,0,2.46-0.52,3.31-1.37
			C199.12,276.39,199.46,275.88,199.7,275.32z"/>
		<path class="st4" d="M220.65,276.4c0.19-0.28,0.35-0.57,0.48-0.88c0.26-0.62,0.41-1.3,0.41-2.02c0-1.07-0.33-2.07-0.89-2.9
			c-0.93-1.38-2.51-2.29-4.3-2.29c-0.36,0-0.71,0.04-1.04,0.11c-1.01,0.21-1.92,0.71-2.62,1.41c-0.23,0.23-0.45,0.49-0.63,0.77
			c-0.37,0.55-0.64,1.18-0.78,1.85c-0.07,0.34-0.11,0.69-0.11,1.04c0,0.36,0.04,0.71,0.11,1.04c0.07,0.34,0.17,0.66,0.3,0.97
			c0.13,0.31,0.29,0.61,0.48,0.88c0.19,0.28,0.4,0.53,0.63,0.77c0.7,0.7,1.61,1.21,2.62,1.42c0.34,0.07,0.69,0.11,1.04,0.11
			c1.43,0,2.73-0.58,3.67-1.52C220.26,276.94,220.47,276.68,220.65,276.4z"/>
		<path class="st4" d="M242.61,275.74c0.29-0.69,0.45-1.44,0.45-2.24c0-3.17-2.57-5.75-5.75-5.75c-3.17,0-5.75,2.57-5.75,5.75
			c0,0.79,0.16,1.55,0.45,2.24c0.29,0.69,0.71,1.31,1.23,1.83c1.04,1.04,2.48,1.68,4.07,1.68s3.02-0.64,4.06-1.68
			C241.9,277.05,242.32,276.43,242.61,275.74z"/>
		<path class="st4" d="M220.65,234.47c0.37-0.55,0.64-1.18,0.78-1.86c0.07-0.34,0.11-0.69,0.11-1.05c0-1.07-0.33-2.07-0.89-2.9
			c-0.93-1.38-2.51-2.29-4.3-2.29c-0.36,0-0.71,0.04-1.04,0.11c-1.01,0.21-1.92,0.71-2.62,1.41c-0.23,0.23-0.45,0.49-0.63,0.77
			c-0.37,0.55-0.64,1.18-0.78,1.85c-0.07,0.34-0.11,0.69-0.11,1.04c0,0.36,0.04,0.71,0.11,1.05c0.14,0.68,0.41,1.3,0.78,1.86
			c0.19,0.28,0.4,0.53,0.63,0.77c0.7,0.7,1.61,1.21,2.62,1.42c0.34,0.07,0.69,0.11,1.04,0.11
			C218.14,236.76,219.72,235.85,220.65,234.47z"/>
		<path class="st4" d="M242.95,232.73c0.08-0.37,0.12-0.76,0.12-1.16c0-3.17-2.57-5.75-5.75-5.75c-3.17,0-5.75,2.57-5.75,5.75
			c0,0.4,0.04,0.78,0.12,1.16c0.54,2.62,2.85,4.59,5.63,4.59C240.1,237.32,242.41,235.35,242.95,232.73z"/>
		<path class="st4" d="M199.97,232.52c0.06-0.3,0.1-0.62,0.1-0.94c0-2.58-2.1-4.68-4.68-4.68c-2.59,0-4.68,2.1-4.68,4.68
			c0,0.32,0.03,0.64,0.1,0.94c0.44,2.13,2.32,3.74,4.59,3.74C197.65,236.26,199.54,234.65,199.97,232.52z"/>
		<path class="st4" d="M264.52,232.86c0.08-0.41,0.13-0.84,0.13-1.28c0-2.2-1.11-4.13-2.81-5.28c-1.02-0.69-2.24-1.09-3.56-1.09
			c-0.44,0-0.87,0.04-1.28,0.13c-2.9,0.59-5.09,3.16-5.09,6.24c0,0.44,0.04,0.87,0.13,1.28c0.51,2.49,2.47,4.45,4.96,4.96
			c0.41,0.08,0.84,0.13,1.28,0.13c1.32,0,2.55-0.4,3.56-1.09C263.2,235.94,264.18,234.52,264.52,232.86z"/>
		<path class="st4" d="M286.16,233c0.09-0.46,0.14-0.94,0.14-1.42c0-3.9-3.16-7.05-7.06-7.05s-7.06,3.16-7.06,7.05
			c0,0.49,0.05,0.96,0.14,1.42c0.66,3.22,3.5,5.64,6.92,5.64S285.5,236.21,286.16,233z"/>
		<path class="st4" d="M297.16,221.1c0-4.11-3.33-7.43-7.43-7.43c-4.1,0-7.43,3.32-7.43,7.43c0,4.1,3.32,7.42,7.43,7.42
			C293.83,228.52,297.16,225.2,297.16,221.1z"/>
		<path class="st4" d="M232.3,221.09c0-3.02-2.44-5.46-5.46-5.46c-3.01,0-5.46,2.44-5.46,5.46c0,3.01,2.45,5.46,5.46,5.46
			C229.85,226.55,232.3,224.11,232.3,221.09z"/>
		<path class="st4" d="M253.85,221.09c0-3.34-2.71-6.05-6.05-6.05c-3.34,0-6.05,2.71-6.05,6.05c0,3.34,2.71,6.05,6.05,6.05
			C251.14,227.14,253.85,224.43,253.85,221.09z"/>
		<path class="st4" d="M275.47,221.09c0-3.71-3-6.71-6.7-6.71c-3.7,0-6.7,3-6.7,6.71c0,3.7,3,6.7,6.7,6.7
			C272.47,227.8,275.47,224.8,275.47,221.09z"/>
		<path class="st4" d="M220.65,255.44c0.56-0.83,0.89-1.83,0.89-2.9c0-1.07-0.33-2.07-0.89-2.9c-0.93-1.38-2.51-2.29-4.3-2.29
			c-0.36,0-0.71,0.04-1.04,0.11c-1.01,0.21-1.92,0.71-2.62,1.41c-0.23,0.23-0.45,0.49-0.63,0.77c-0.37,0.55-0.64,1.18-0.78,1.85
			c-0.07,0.34-0.11,0.69-0.11,1.04s0.04,0.71,0.11,1.04c0.14,0.68,0.41,1.3,0.78,1.85c0.19,0.28,0.4,0.53,0.63,0.77
			c0.7,0.7,1.61,1.21,2.62,1.42c0.34,0.07,0.69,0.11,1.04,0.11C218.14,257.73,219.72,256.82,220.65,255.44z"/>
		<path class="st4" d="M177.93,254.9c0.46-0.67,0.72-1.49,0.72-2.36c0-0.87-0.27-1.69-0.72-2.36c-0.76-1.12-2.04-1.86-3.5-1.86
			c-0.29,0-0.58,0.03-0.85,0.09c-0.82,0.17-1.56,0.58-2.14,1.15c-0.19,0.19-0.36,0.4-0.52,0.63c-0.3,0.45-0.52,0.96-0.64,1.51
			c-0.06,0.27-0.09,0.56-0.09,0.85c0,0.29,0.03,0.58,0.09,0.85c0.11,0.55,0.33,1.06,0.64,1.51c0.15,0.22,0.32,0.43,0.52,0.63
			c0.57,0.57,1.31,0.98,2.14,1.15c0.28,0.06,0.56,0.09,0.85,0.09C175.88,256.77,177.17,256.03,177.93,254.9z"/>
		<path class="st4" d="M200.07,252.54c0-2.58-2.1-4.68-4.68-4.68c-2.59,0-4.68,2.1-4.68,4.68c0,2.58,2.1,4.68,4.68,4.68
			C197.97,257.22,200.07,255.12,200.07,252.54z"/>
		<path class="st4" d="M275.47,242.06c0-3.7-3-6.7-6.7-6.7c-3.7,0-6.7,3-6.7,6.7c0,3.7,3,6.71,6.7,6.71
			C272.47,248.76,275.47,245.76,275.47,242.06z"/>
		<path class="st4" d="M253.85,242.06c0-3.34-2.71-6.05-6.05-6.05c-3.34,0-6.05,2.71-6.05,6.05c0,3.34,2.71,6.05,6.05,6.05
			C251.14,248.11,253.85,245.4,253.85,242.06z"/>
		<path class="st4" d="M189.35,242.06c0-2.46-1.99-4.45-4.45-4.45c-2.46,0-4.45,1.99-4.45,4.45c0,2.46,1.99,4.45,4.45,4.45
			C187.36,246.51,189.35,244.51,189.35,242.06z"/>
		<path class="st4" d="M232.3,242.06c0-3.02-2.44-5.46-5.46-5.46c-3.01,0-5.46,2.44-5.46,5.46c0,3.02,2.45,5.46,5.46,5.46
			C229.85,247.52,232.3,245.07,232.3,242.06z"/>
		<path class="st4" d="M210.8,242.06c0-2.72-2.21-4.93-4.93-4.93c-2.72,0-4.93,2.21-4.93,4.93c0,2.72,2.21,4.93,4.93,4.93
			C208.59,246.99,210.8,244.78,210.8,242.06z"/>
		<path class="st4" d="M189.35,325.91c0-2.46-1.99-4.45-4.45-4.45c-2.46,0-4.45,1.99-4.45,4.45c0,2.46,1.99,4.45,4.45,4.45
			C187.36,330.36,189.35,328.37,189.35,325.91z"/>
		<path class="st4" d="M146.6,325.91c0-2-1.62-3.62-3.62-3.62c-2,0-3.62,1.62-3.62,3.62c0,2,1.62,3.62,3.62,3.62
			C144.98,329.54,146.6,327.91,146.6,325.91z"/>
		<path class="st4" d="M167.95,325.91c0-2.22-1.8-4.01-4.01-4.01c-2.22,0-4.01,1.8-4.01,4.01c0,2.22,1.8,4.02,4.01,4.02
			C166.16,329.93,167.95,328.13,167.95,325.91z"/>
		<path class="st4" d="M177.93,338.76c0.46-0.67,0.72-1.49,0.72-2.36c0-0.87-0.27-1.69-0.72-2.36c-0.76-1.12-2.04-1.86-3.5-1.86
			c-0.29,0-0.58,0.03-0.85,0.09c-0.82,0.17-1.56,0.58-2.14,1.15c-0.19,0.19-0.36,0.4-0.52,0.62c-0.3,0.45-0.52,0.96-0.64,1.51
			c-0.06,0.28-0.09,0.56-0.09,0.85c0,0.29,0.03,0.58,0.09,0.85c0.11,0.55,0.33,1.06,0.64,1.51c0.15,0.22,0.32,0.43,0.52,0.63
			c0.57,0.57,1.31,0.98,2.14,1.15c0.28,0.06,0.56,0.09,0.85,0.09C175.88,340.62,177.17,339.88,177.93,338.76z"/>
		<path class="st4" d="M157.27,336.39c0-2.1-1.71-3.81-3.81-3.81s-3.81,1.71-3.81,3.81c0,2.1,1.71,3.81,3.81,3.81
			S157.27,338.5,157.27,336.39z"/>
		<path class="st4" d="M200.07,294.47c0-2.58-2.1-4.68-4.68-4.68c-2.59,0-4.68,2.1-4.68,4.68c0,2.58,2.1,4.68,4.68,4.68
			C197.97,299.15,200.07,297.05,200.07,294.47z"/>
		<path class="st4" d="M220.65,297.37c0.56-0.83,0.89-1.83,0.89-2.9c0-1.07-0.33-2.07-0.89-2.9c-0.93-1.38-2.51-2.29-4.3-2.29
			c-0.36,0-0.71,0.04-1.04,0.11c-1.01,0.21-1.92,0.71-2.62,1.41c-0.23,0.23-0.45,0.49-0.63,0.77c-0.37,0.55-0.64,1.18-0.78,1.85
			c-0.07,0.34-0.11,0.69-0.11,1.04c0,0.36,0.04,0.71,0.11,1.04c0.14,0.68,0.41,1.3,0.78,1.85c0.19,0.28,0.4,0.53,0.63,0.77
			c0.7,0.7,1.61,1.21,2.62,1.42c0.34,0.07,0.69,0.11,1.04,0.11C218.14,299.65,219.72,298.75,220.65,297.37z"/>
		<path class="st4" d="M177.93,296.83c0.46-0.67,0.72-1.49,0.72-2.36c0-0.87-0.27-1.69-0.72-2.36c-0.76-1.12-2.04-1.86-3.5-1.86
			c-0.29,0-0.58,0.03-0.85,0.09c-0.82,0.17-1.56,0.58-2.14,1.15c-0.19,0.19-0.36,0.4-0.52,0.62c-0.3,0.45-0.52,0.96-0.64,1.51
			c-0.06,0.27-0.09,0.56-0.09,0.85c0,0.29,0.03,0.58,0.09,0.85c0.11,0.55,0.33,1.06,0.64,1.51c0.15,0.22,0.32,0.43,0.52,0.63
			c0.57,0.57,1.31,0.98,2.14,1.15c0.28,0.06,0.56,0.09,0.85,0.09C175.88,298.69,177.17,297.95,177.93,296.83z"/>
		<path class="st4" d="M135.93,294.47c0-1.19-0.6-2.23-1.52-2.85c-0.55-0.37-1.21-0.59-1.92-0.59c-0.24,0-0.47,0.02-0.69,0.07
			c-1.57,0.32-2.75,1.71-2.75,3.37c0,1.66,1.18,3.05,2.75,3.37c0.22,0.05,0.46,0.07,0.69,0.07c0.71,0,1.38-0.22,1.92-0.59
			C135.33,296.7,135.93,295.65,135.93,294.47z"/>
		<path class="st4" d="M157.27,294.47c0-2.1-1.71-3.81-3.81-3.81s-3.81,1.71-3.81,3.81c0,2.1,1.71,3.81,3.81,3.81
			S157.27,296.57,157.27,294.47z"/>
		<path class="st4" d="M134.93,317.86c0.31-0.31,0.56-0.68,0.74-1.09c0.17-0.41,0.27-0.86,0.27-1.34c0-1.19-0.6-2.23-1.52-2.85
			c-0.55-0.37-1.21-0.59-1.92-0.59c-0.24,0-0.47,0.02-0.69,0.07c-1.57,0.32-2.75,1.71-2.75,3.37c0,0.48,0.1,0.93,0.27,1.34
			c0.17,0.41,0.43,0.78,0.74,1.09c0.47,0.47,1.07,0.8,1.74,0.94c0.22,0.05,0.46,0.07,0.69,0.07c0.71,0,1.38-0.22,1.92-0.59
			C134.6,318.16,134.77,318.02,134.93,317.86z"/>
		<path class="st4" d="M199.7,317.25c0.24-0.56,0.37-1.18,0.37-1.82c0-2.58-2.1-4.68-4.68-4.68c-2.59,0-4.68,2.1-4.68,4.68
			c0,0.65,0.13,1.26,0.37,1.82c0.24,0.56,0.58,1.06,1,1.49c0.85,0.85,2.02,1.37,3.31,1.37c1.29,0,2.46-0.52,3.31-1.37
			C199.12,318.32,199.46,317.81,199.7,317.25z"/>
		<path class="st4" d="M156.97,316.91c0.19-0.46,0.3-0.96,0.3-1.48c0-2.1-1.71-3.81-3.81-3.81s-3.81,1.71-3.81,3.81
			c0,0.53,0.11,1.03,0.3,1.48c0.19,0.46,0.47,0.87,0.82,1.21c0.69,0.69,1.64,1.12,2.7,1.12c1.05,0,2.01-0.43,2.7-1.12
			C156.5,317.78,156.78,317.37,156.97,316.91z"/>
		<path class="st4" d="M177.93,317.79c0.15-0.22,0.28-0.47,0.39-0.72c0.21-0.51,0.33-1.06,0.33-1.64c0-0.87-0.27-1.69-0.72-2.36
			c-0.76-1.12-2.04-1.86-3.5-1.86c-0.29,0-0.58,0.03-0.85,0.09c-0.82,0.17-1.56,0.58-2.14,1.15c-0.19,0.19-0.36,0.4-0.52,0.62
			c-0.3,0.45-0.52,0.96-0.64,1.51c-0.06,0.28-0.09,0.56-0.09,0.85s0.03,0.58,0.09,0.85c0.06,0.28,0.14,0.54,0.25,0.79
			c0.11,0.25,0.24,0.49,0.39,0.72c0.15,0.22,0.32,0.43,0.52,0.63c0.57,0.57,1.31,0.98,2.14,1.15c0.28,0.06,0.56,0.09,0.85,0.09
			c1.17,0,2.22-0.47,2.99-1.24C177.6,318.23,177.78,318.02,177.93,317.79z"/>
		<path class="st4" d="M167.95,304.95c0-2.22-1.8-4.01-4.01-4.01c-2.22,0-4.01,1.8-4.01,4.01c0,2.22,1.8,4.01,4.01,4.01
			C166.16,308.96,167.95,307.16,167.95,304.95z"/>
		<path class="st4" d="M189.35,304.95c0-2.46-1.99-4.45-4.45-4.45c-2.46,0-4.45,1.99-4.45,4.45c0,2.46,1.99,4.45,4.45,4.45
			C187.36,309.39,189.35,307.4,189.35,304.95z"/>
		<path class="st4" d="M146.6,304.95c0-2-1.62-3.62-3.62-3.62c-2,0-3.62,1.62-3.62,3.62c0,2,1.62,3.62,3.62,3.62
			C144.98,308.57,146.6,306.95,146.6,304.95z"/>
		<path class="st4" d="M210.8,221.09c0-2.72-2.21-4.93-4.93-4.93c-2.72,0-4.93,2.21-4.93,4.93c0,2.72,2.21,4.93,4.93,4.93
			C208.59,226.02,210.8,223.81,210.8,221.09z"/>
		<path class="st4" d="M210.8,304.95c0-2.72-2.21-4.93-4.93-4.93c-2.72,0-4.93,2.21-4.93,4.93c0,2.72,2.21,4.93,4.93,4.93
			C208.59,309.87,210.8,307.67,210.8,304.95z"/>
		<path class="st4" d="M253.85,200.13c0-3.34-2.71-6.05-6.05-6.05c-3.34,0-6.05,2.71-6.05,6.05c0,3.34,2.71,6.05,6.05,6.05
			C251.14,206.18,253.85,203.47,253.85,200.13z"/>
		<path class="st4" d="M232.3,200.13c0-3.02-2.44-5.46-5.46-5.46c-3.01,0-5.46,2.44-5.46,5.46c0,3.02,2.45,5.46,5.46,5.46
			C229.85,205.59,232.3,203.15,232.3,200.13z"/>
		<path class="st4" d="M275.47,200.13c0-3.7-3-6.7-6.7-6.7c-3.7,0-6.7,3-6.7,6.7c0,3.7,3,6.71,6.7,6.71
			C272.47,206.84,275.47,203.83,275.47,200.13z"/>
		<path class="st4" d="M297.16,200.13c0-4.1-3.33-7.43-7.43-7.43c-4.1,0-7.43,3.32-7.43,7.43c0,4.1,3.32,7.43,7.43,7.43
			C293.83,207.56,297.16,204.23,297.16,200.13z"/>
		<path class="st4" d="M264.65,210.61c0-2.2-1.11-4.13-2.81-5.28c-1.02-0.69-2.24-1.09-3.56-1.09c-0.44,0-0.87,0.04-1.28,0.13
			c-2.9,0.59-5.09,3.16-5.09,6.24c0,3.08,2.18,5.65,5.09,6.24c0.41,0.08,0.84,0.13,1.28,0.13c1.32,0,2.55-0.4,3.56-1.09
			C263.54,214.75,264.65,212.81,264.65,210.61z"/>
		<path class="st4" d="M220.65,213.51c0.56-0.83,0.89-1.83,0.89-2.9c0-1.07-0.33-2.07-0.89-2.9c-0.93-1.38-2.51-2.29-4.3-2.29
			c-0.36,0-0.71,0.04-1.04,0.11c-1.01,0.21-1.92,0.71-2.62,1.41c-0.23,0.23-0.45,0.49-0.63,0.77c-0.37,0.55-0.64,1.18-0.78,1.85
			c-0.07,0.34-0.11,0.69-0.11,1.04c0,0.36,0.04,0.71,0.11,1.04c0.14,0.68,0.41,1.3,0.78,1.85c0.19,0.28,0.4,0.53,0.63,0.77
			c0.7,0.7,1.61,1.21,2.62,1.42c0.34,0.07,0.69,0.11,1.04,0.11C218.14,215.8,219.72,214.89,220.65,213.51z"/>
		<path class="st4" d="M305.41,210.61c0-2.87-2.33-5.2-5.2-5.2c-2.87,0-5.2,2.33-5.2,5.2c0,2.87,2.33,5.2,5.2,5.2
			C303.09,215.81,305.41,213.48,305.41,210.61z"/>
		<path class="st4" d="M286.3,210.61c0-3.9-3.16-7.05-7.06-7.05s-7.06,3.16-7.06,7.05c0,3.89,3.16,7.06,7.06,7.06
			S286.3,214.51,286.3,210.61z"/>
		<path class="st4" d="M243.07,210.61c0-3.17-2.57-5.75-5.75-5.75c-3.17,0-5.75,2.57-5.75,5.75c0,3.17,2.57,5.75,5.75,5.75
			C240.49,216.36,243.07,213.78,243.07,210.61z"/>
	</g>
	<g>
		<path class="st4" d="M232.3,116.01c0-3.02-2.44-5.46-5.46-5.46c-3.01,0-5.46,2.44-5.46,5.46c0,3.01,2.45,5.46,5.46,5.46
			C229.85,121.47,232.3,119.03,232.3,116.01z"/>
		<path class="st4" d="M167.95,116.01c0-2.22-1.8-4.02-4.01-4.02c-2.22,0-4.01,1.8-4.01,4.02c0,2.22,1.8,4.01,4.01,4.01
			C166.16,120.02,167.95,118.23,167.95,116.01z"/>
		<path class="st4" d="M210.8,116.01c0-2.72-2.21-4.93-4.93-4.93c-2.72,0-4.93,2.21-4.93,4.93c0,2.72,2.21,4.93,4.93,4.93
			C208.59,120.94,210.8,118.73,210.8,116.01z"/>
		<path class="st4" d="M146.6,116.01c0-2-1.62-3.62-3.62-3.62c-2,0-3.62,1.62-3.62,3.62c0,2,1.62,3.62,3.62,3.62
			C144.98,119.63,146.6,118.01,146.6,116.01z"/>
		<path class="st4" d="M189.35,116.01c0-2.46-1.99-4.45-4.45-4.45c-2.46,0-4.45,1.99-4.45,4.45c0,2.46,1.99,4.45,4.45,4.45
			C187.36,120.46,189.35,118.47,189.35,116.01z"/>
		<path class="st4" d="M210.8,136.98c0-2.72-2.21-4.93-4.93-4.93c-2.72,0-4.93,2.21-4.93,4.93c0,2.72,2.21,4.93,4.93,4.93
			C208.59,141.91,210.8,139.7,210.8,136.98z"/>
		<path class="st4" d="M189.35,136.98c0-2.46-1.99-4.45-4.45-4.45c-2.46,0-4.45,1.99-4.45,4.45c0,2.46,1.99,4.45,4.45,4.45
			C187.36,141.43,189.35,139.43,189.35,136.98z"/>
		<path class="st4" d="M253.85,136.98c0-3.34-2.71-6.05-6.05-6.05c-3.34,0-6.05,2.71-6.05,6.05c0,3.34,2.71,6.05,6.05,6.05
			C251.14,143.03,253.85,140.32,253.85,136.98z"/>
		<path class="st4" d="M232.3,136.98c0-3.02-2.44-5.46-5.46-5.46c-3.01,0-5.46,2.44-5.46,5.46c0,3.02,2.45,5.46,5.46,5.46
			C229.85,142.44,232.3,139.99,232.3,136.98z"/>
		<path class="st4" d="M167.95,136.98c0-2.22-1.8-4.01-4.01-4.01c-2.22,0-4.01,1.8-4.01,4.01c0,2.22,1.8,4.02,4.01,4.02
			C166.16,140.99,167.95,139.19,167.95,136.98z"/>
		<path class="st4" d="M156.97,127.98c0.19-0.46,0.3-0.96,0.3-1.48c0-2.1-1.71-3.81-3.81-3.81s-3.81,1.71-3.81,3.81
			c0,0.53,0.11,1.03,0.3,1.48c0.19,0.46,0.47,0.87,0.82,1.21c0.69,0.69,1.64,1.12,2.7,1.12c1.05,0,2.01-0.43,2.7-1.12
			C156.5,128.84,156.78,128.43,156.97,127.98z"/>
		<path class="st4" d="M177.93,128.86c0.15-0.22,0.28-0.47,0.39-0.72c0.21-0.51,0.33-1.06,0.33-1.64c0-0.87-0.27-1.69-0.72-2.36
			c-0.76-1.12-2.04-1.86-3.5-1.86c-0.29,0-0.58,0.03-0.85,0.09c-0.82,0.17-1.56,0.58-2.14,1.15c-0.19,0.19-0.36,0.4-0.52,0.62
			c-0.3,0.45-0.52,0.96-0.64,1.51c-0.06,0.28-0.09,0.56-0.09,0.85c0,0.29,0.03,0.58,0.09,0.85c0.06,0.28,0.14,0.54,0.25,0.79
			c0.11,0.25,0.24,0.49,0.39,0.72c0.15,0.22,0.32,0.43,0.52,0.63c0.57,0.57,1.31,0.98,2.14,1.15c0.28,0.06,0.56,0.09,0.85,0.09
			c1.17,0,2.22-0.47,2.99-1.24C177.6,129.29,177.78,129.08,177.93,128.86z"/>
		<path class="st4" d="M199.7,128.32c0.24-0.56,0.37-1.18,0.37-1.82c0-2.58-2.1-4.68-4.68-4.68c-2.59,0-4.68,2.1-4.68,4.68
			c0,0.65,0.13,1.26,0.37,1.82c0.24,0.56,0.58,1.06,1,1.49c0.85,0.85,2.02,1.37,3.31,1.37c1.29,0,2.46-0.52,3.31-1.37
			C199.12,129.38,199.46,128.88,199.7,128.32z"/>
		<path class="st4" d="M220.65,129.39c0.19-0.28,0.35-0.57,0.48-0.88c0.26-0.62,0.41-1.3,0.41-2.02c0-1.07-0.33-2.07-0.89-2.9
			c-0.93-1.38-2.51-2.29-4.3-2.29c-0.36,0-0.71,0.04-1.04,0.11c-1.01,0.21-1.92,0.71-2.62,1.41c-0.23,0.23-0.45,0.49-0.63,0.77
			c-0.37,0.55-0.64,1.18-0.78,1.85c-0.07,0.34-0.11,0.69-0.11,1.04c0,0.36,0.04,0.71,0.11,1.04c0.07,0.34,0.17,0.66,0.3,0.97
			c0.13,0.31,0.29,0.61,0.48,0.88c0.19,0.28,0.4,0.53,0.63,0.77c0.7,0.7,1.61,1.21,2.62,1.42c0.34,0.07,0.69,0.11,1.04,0.11
			c1.43,0,2.73-0.58,3.67-1.52C220.26,129.93,220.47,129.67,220.65,129.39z"/>
		<path class="st4" d="M242.61,128.73c0.29-0.69,0.45-1.44,0.45-2.24c0-3.17-2.57-5.75-5.75-5.75c-3.17,0-5.75,2.57-5.75,5.75
			c0,0.79,0.16,1.55,0.45,2.24c0.29,0.69,0.71,1.31,1.23,1.83c1.04,1.04,2.48,1.68,4.07,1.68s3.02-0.64,4.06-1.68
			C241.9,130.04,242.32,129.42,242.61,128.73z"/>
		<path class="st4" d="M199.97,85.51c0.06-0.3,0.1-0.62,0.1-0.94c0-2.58-2.1-4.68-4.68-4.68c-2.59,0-4.68,2.1-4.68,4.68
			c0,0.32,0.03,0.64,0.1,0.94c0.44,2.13,2.32,3.74,4.59,3.74C197.65,89.25,199.54,87.64,199.97,85.51z"/>
		<path class="st4" d="M177.93,86.93c0.3-0.45,0.52-0.96,0.64-1.51c0.06-0.28,0.09-0.56,0.09-0.85c0-0.87-0.27-1.69-0.72-2.36
			c-0.76-1.12-2.04-1.86-3.5-1.86c-0.29,0-0.58,0.03-0.85,0.09c-0.82,0.17-1.56,0.58-2.14,1.15c-0.19,0.19-0.36,0.4-0.52,0.62
			c-0.3,0.45-0.52,0.96-0.64,1.51c-0.06,0.27-0.09,0.56-0.09,0.85c0,0.29,0.03,0.58,0.09,0.85c0.11,0.55,0.33,1.06,0.64,1.51
			c0.15,0.22,0.32,0.43,0.52,0.63c0.57,0.57,1.31,0.98,2.14,1.15c0.28,0.06,0.56,0.09,0.85,0.09
			C175.88,88.79,177.17,88.05,177.93,86.93z"/>
		<path class="st4" d="M135.87,85.26c0.05-0.22,0.07-0.46,0.07-0.69c0-1.19-0.6-2.23-1.52-2.85c-0.55-0.37-1.21-0.59-1.92-0.59
			c-0.24,0-0.47,0.02-0.69,0.07c-1.57,0.32-2.75,1.71-2.75,3.37c0,0.24,0.02,0.47,0.07,0.69c0.28,1.34,1.33,2.4,2.68,2.68
			c0.22,0.05,0.46,0.07,0.69,0.07c0.71,0,1.38-0.22,1.92-0.59C135.15,86.93,135.68,86.16,135.87,85.26z"/>
		<path class="st4" d="M157.19,85.33c0.05-0.25,0.08-0.5,0.08-0.77c0-2.1-1.71-3.81-3.81-3.81s-3.81,1.71-3.81,3.81
			c0,0.26,0.03,0.52,0.08,0.77c0.36,1.74,1.89,3.05,3.74,3.05S156.84,87.07,157.19,85.33z"/>
		<path class="st4" d="M220.65,108.43c0.56-0.83,0.89-1.83,0.89-2.9c0-1.07-0.33-2.07-0.89-2.9c-0.93-1.38-2.51-2.29-4.3-2.29
			c-0.36,0-0.71,0.04-1.04,0.11c-1.01,0.21-1.92,0.71-2.62,1.41c-0.23,0.23-0.45,0.49-0.63,0.77c-0.37,0.55-0.64,1.18-0.78,1.85
			c-0.07,0.34-0.11,0.69-0.11,1.04c0,0.36,0.04,0.71,0.11,1.04c0.14,0.68,0.41,1.3,0.78,1.85c0.19,0.28,0.4,0.53,0.63,0.77
			c0.7,0.7,1.61,1.21,2.62,1.42c0.34,0.07,0.69,0.11,1.04,0.11C218.14,110.72,219.72,109.81,220.65,108.43z"/>
		<path class="st4" d="M135.93,105.53c0-1.19-0.6-2.23-1.52-2.85c-0.55-0.37-1.21-0.59-1.92-0.59c-0.24,0-0.47,0.02-0.69,0.07
			c-1.57,0.32-2.75,1.71-2.75,3.37c0,1.66,1.18,3.05,2.75,3.37c0.22,0.05,0.46,0.07,0.69,0.07c0.71,0,1.38-0.22,1.92-0.59
			C135.33,107.77,135.93,106.72,135.93,105.53z"/>
		<path class="st4" d="M177.93,107.89c0.46-0.67,0.72-1.49,0.72-2.36c0-0.87-0.27-1.69-0.72-2.36c-0.76-1.12-2.04-1.86-3.5-1.86
			c-0.29,0-0.58,0.03-0.85,0.09c-0.82,0.17-1.56,0.58-2.14,1.15c-0.19,0.19-0.36,0.4-0.52,0.62c-0.3,0.45-0.52,0.96-0.64,1.51
			c-0.06,0.28-0.09,0.56-0.09,0.85c0,0.29,0.03,0.58,0.09,0.85c0.11,0.55,0.33,1.06,0.64,1.51c0.15,0.22,0.32,0.43,0.52,0.63
			c0.57,0.57,1.31,0.98,2.14,1.15c0.28,0.06,0.56,0.09,0.85,0.09C175.88,109.76,177.17,109.02,177.93,107.89z"/>
		<path class="st4" d="M157.27,105.53c0-2.1-1.71-3.81-3.81-3.81s-3.81,1.71-3.81,3.81c0,2.1,1.71,3.81,3.81,3.81
			S157.27,107.64,157.27,105.53z"/>
		<path class="st4" d="M200.07,105.53c0-2.58-2.1-4.68-4.68-4.68c-2.59,0-4.68,2.1-4.68,4.68c0,2.58,2.1,4.68,4.68,4.68
			C197.97,110.21,200.07,108.11,200.07,105.53z"/>
		<path class="st4" d="M146.6,95.05c0-2-1.62-3.62-3.62-3.62c-2,0-3.62,1.62-3.62,3.62c0,2,1.62,3.62,3.62,3.62
			C144.98,98.67,146.6,97.05,146.6,95.05z"/>
		<path class="st4" d="M167.95,95.05c0-2.22-1.8-4.01-4.01-4.01c-2.22,0-4.01,1.8-4.01,4.01c0,2.22,1.8,4.02,4.01,4.02
			C166.16,99.06,167.95,97.27,167.95,95.05z"/>
		<path class="st4" d="M189.35,95.05c0-2.46-1.99-4.45-4.45-4.45c-2.46,0-4.45,1.99-4.45,4.45c0,2.46,1.99,4.45,4.45,4.45
			C187.36,99.5,189.35,97.51,189.35,95.05z"/>
		<path class="st4" d="M210.8,95.05c0-2.72-2.21-4.93-4.93-4.93c-2.72,0-4.93,2.21-4.93,4.93c0,2.72,2.21,4.93,4.93,4.93
			C208.59,99.98,210.8,97.77,210.8,95.05z"/>
		<path class="st4" d="M232.3,178.9c0-3.02-2.44-5.46-5.46-5.46c-3.01,0-5.46,2.44-5.46,5.46c0,3.02,2.45,5.46,5.46,5.46
			C229.85,184.37,232.3,181.92,232.3,178.9z"/>
		<path class="st4" d="M253.85,178.9c0-3.34-2.71-6.05-6.05-6.05c-3.34,0-6.05,2.71-6.05,6.05c0,3.34,2.71,6.05,6.05,6.05
			C251.14,184.96,253.85,182.24,253.85,178.9z"/>
		<path class="st4" d="M275.47,178.9c0-3.7-3-6.7-6.7-6.7c-3.7,0-6.7,3-6.7,6.7c0,3.7,3,6.71,6.7,6.71
			C272.47,185.61,275.47,182.6,275.47,178.9z"/>
		<path class="st4" d="M297.16,178.9c0-4.1-3.33-7.43-7.43-7.43c-4.1,0-7.43,3.32-7.43,7.43c0,4.1,3.32,7.43,7.43,7.43
			C293.83,186.33,297.16,183,297.16,178.9z"/>
		<path class="st4" d="M210.8,178.9c0-2.72-2.21-4.93-4.93-4.93c-2.72,0-4.93,2.21-4.93,4.93c0,2.72,2.21,4.93,4.93,4.93
			C208.59,183.83,210.8,181.62,210.8,178.9z"/>
		<path class="st4" d="M275.47,199.87c0-3.7-3-6.71-6.7-6.71c-3.7,0-6.7,3-6.7,6.71c0,3.7,3,6.7,6.7,6.7
			C272.47,206.57,275.47,203.57,275.47,199.87z"/>
		<path class="st4" d="M253.85,199.87c0-3.34-2.71-6.05-6.05-6.05c-3.34,0-6.05,2.71-6.05,6.05c0,3.34,2.71,6.05,6.05,6.05
			C251.14,205.92,253.85,203.21,253.85,199.87z"/>
		<path class="st4" d="M297.16,199.87c0-4.11-3.33-7.43-7.43-7.43c-4.1,0-7.43,3.32-7.43,7.43c0,4.1,3.32,7.43,7.43,7.43
			C293.83,207.29,297.16,203.97,297.16,199.87z"/>
		<path class="st4" d="M232.3,199.87c0-3.02-2.44-5.46-5.46-5.46c-3.01,0-5.46,2.44-5.46,5.46c0,3.01,2.45,5.46,5.46,5.46
			C229.85,205.33,232.3,202.88,232.3,199.87z"/>
		<path class="st4" d="M220.65,192.28c0.56-0.83,0.89-1.83,0.89-2.9c0-1.07-0.33-2.07-0.89-2.9c-0.93-1.38-2.51-2.29-4.3-2.29
			c-0.36,0-0.71,0.04-1.04,0.11c-1.01,0.21-1.92,0.71-2.62,1.41c-0.23,0.23-0.45,0.49-0.63,0.77c-0.37,0.55-0.64,1.18-0.78,1.85
			c-0.07,0.34-0.11,0.69-0.11,1.04s0.04,0.71,0.11,1.04c0.14,0.68,0.41,1.3,0.78,1.85c0.19,0.28,0.4,0.53,0.63,0.77
			c0.7,0.7,1.61,1.21,2.62,1.42c0.34,0.07,0.69,0.11,1.04,0.11C218.14,194.57,219.72,193.66,220.65,192.28z"/>
		<path class="st4" d="M264.65,189.38c0-2.2-1.11-4.13-2.81-5.28c-1.02-0.69-2.24-1.09-3.56-1.09c-0.44,0-0.87,0.04-1.28,0.13
			c-2.9,0.59-5.09,3.16-5.09,6.24c0,3.08,2.18,5.65,5.09,6.24c0.41,0.08,0.84,0.13,1.28,0.13c1.32,0,2.55-0.4,3.56-1.09
			C263.54,193.52,264.65,191.58,264.65,189.38z"/>
		<path class="st4" d="M243.07,189.39c0-3.17-2.57-5.75-5.75-5.75c-3.17,0-5.75,2.57-5.75,5.75c0,3.17,2.57,5.75,5.75,5.75
			C240.49,195.13,243.07,192.56,243.07,189.39z"/>
		<path class="st4" d="M305.41,189.39c0-2.87-2.33-5.2-5.2-5.2c-2.87,0-5.2,2.33-5.2,5.2c0,2.87,2.33,5.2,5.2,5.2
			C303.09,194.59,305.41,192.25,305.41,189.39z"/>
		<path class="st4" d="M286.3,189.38c0-3.9-3.16-7.05-7.06-7.05s-7.06,3.16-7.06,7.05c0,3.89,3.16,7.06,7.06,7.06
			S286.3,193.28,286.3,189.38z"/>
		<path class="st4" d="M200.07,147.46c0-2.58-2.1-4.68-4.68-4.68c-2.59,0-4.68,2.1-4.68,4.68c0,2.58,2.1,4.68,4.68,4.68
			C197.97,152.14,200.07,150.04,200.07,147.46z"/>
		<path class="st4" d="M220.65,150.36c0.56-0.83,0.89-1.83,0.89-2.9c0-1.07-0.33-2.07-0.89-2.9c-0.93-1.38-2.51-2.29-4.3-2.29
			c-0.36,0-0.71,0.04-1.04,0.11c-1.01,0.21-1.92,0.71-2.62,1.41c-0.23,0.23-0.45,0.49-0.63,0.77c-0.37,0.55-0.64,1.18-0.78,1.85
			c-0.07,0.34-0.11,0.69-0.11,1.04s0.04,0.71,0.11,1.04c0.14,0.68,0.41,1.3,0.78,1.85c0.19,0.28,0.4,0.53,0.63,0.77
			c0.7,0.7,1.61,1.21,2.62,1.42c0.34,0.07,0.69,0.11,1.04,0.11C218.14,152.65,219.72,151.74,220.65,150.36z"/>
		<path class="st4" d="M264.65,147.46c0-2.2-1.11-4.13-2.81-5.28c-1.02-0.69-2.24-1.09-3.56-1.09c-0.44,0-0.87,0.04-1.28,0.13
			c-2.9,0.59-5.09,3.16-5.09,6.24c0,3.08,2.18,5.65,5.09,6.24c0.41,0.08,0.84,0.13,1.28,0.13c1.32,0,2.55-0.4,3.56-1.09
			C263.54,151.59,264.65,149.65,264.65,147.46z"/>
		<path class="st4" d="M177.93,149.82c0.46-0.67,0.72-1.49,0.72-2.36c0-0.87-0.27-1.69-0.72-2.36c-0.76-1.12-2.04-1.86-3.5-1.86
			c-0.29,0-0.58,0.03-0.85,0.09c-0.82,0.17-1.56,0.58-2.14,1.15c-0.19,0.19-0.36,0.4-0.52,0.62c-0.3,0.45-0.52,0.96-0.64,1.51
			c-0.06,0.28-0.09,0.56-0.09,0.85c0,0.29,0.03,0.58,0.09,0.85c0.11,0.55,0.33,1.06,0.64,1.51c0.15,0.22,0.32,0.43,0.52,0.63
			c0.57,0.57,1.31,0.98,2.14,1.15c0.28,0.06,0.56,0.09,0.85,0.09C175.88,151.68,177.17,150.94,177.93,149.82z"/>
		<path class="st4" d="M243.07,147.46c0-3.17-2.57-5.75-5.75-5.75c-3.17,0-5.75,2.57-5.75,5.75c0,3.17,2.57,5.75,5.75,5.75
			C240.49,153.21,243.07,150.63,243.07,147.46z"/>
		<path class="st4" d="M242.61,170.66c0.29-0.69,0.45-1.44,0.45-2.24c0-3.17-2.57-5.75-5.75-5.75c-3.17,0-5.75,2.57-5.75,5.75
			c0,0.79,0.16,1.55,0.45,2.24c0.29,0.69,0.71,1.31,1.23,1.83c1.04,1.04,2.48,1.68,4.07,1.68s3.02-0.64,4.06-1.68
			C241.9,171.96,242.32,171.35,242.61,170.66z"/>
		<path class="st4" d="M220.65,171.32c0.19-0.28,0.35-0.57,0.48-0.88c0.26-0.62,0.41-1.3,0.41-2.02c0-1.07-0.33-2.07-0.89-2.9
			c-0.93-1.38-2.51-2.29-4.3-2.29c-0.36,0-0.71,0.04-1.04,0.11c-1.01,0.21-1.92,0.71-2.62,1.41c-0.23,0.23-0.45,0.49-0.63,0.77
			c-0.37,0.55-0.64,1.18-0.78,1.85c-0.07,0.34-0.11,0.69-0.11,1.04c0,0.36,0.04,0.71,0.11,1.04c0.07,0.34,0.17,0.66,0.3,0.97
			c0.13,0.31,0.29,0.61,0.48,0.88c0.19,0.28,0.4,0.53,0.63,0.77c0.7,0.7,1.61,1.21,2.62,1.42c0.34,0.07,0.69,0.11,1.04,0.11
			c1.43,0,2.73-0.58,3.67-1.52C220.26,171.85,220.47,171.6,220.65,171.32z"/>
		<path class="st4" d="M262.79,172.92c0.58-0.58,1.04-1.26,1.36-2.02c0.32-0.76,0.5-1.6,0.5-2.48c0-2.2-1.11-4.13-2.81-5.28
			c-1.02-0.69-2.24-1.09-3.56-1.09c-0.44,0-0.87,0.04-1.28,0.13c-2.9,0.59-5.09,3.16-5.09,6.24c0,0.88,0.18,1.72,0.5,2.48
			c0.32,0.76,0.79,1.45,1.37,2.02c0.86,0.86,1.98,1.48,3.22,1.74c0.41,0.08,0.84,0.13,1.28,0.13c1.32,0,2.55-0.4,3.56-1.09
			C262.18,173.47,262.5,173.21,262.79,172.92z"/>
		<path class="st4" d="M285.75,171.17c0.36-0.84,0.55-1.77,0.55-2.75c0-3.9-3.16-7.05-7.06-7.05s-7.06,3.16-7.06,7.05
			c0,0.97,0.2,1.9,0.55,2.75c0.36,0.84,0.87,1.6,1.51,2.24c1.28,1.28,3.04,2.07,4.99,2.07c1.95,0,3.71-0.79,4.99-2.07
			C284.88,172.77,285.39,172.01,285.75,171.17z"/>
		<path class="st4" d="M199.7,170.24c0.24-0.56,0.37-1.18,0.37-1.82c0-2.58-2.1-4.68-4.68-4.68c-2.59,0-4.68,2.1-4.68,4.68
			c0,0.65,0.13,1.26,0.37,1.82c0.24,0.56,0.58,1.06,1,1.49c0.85,0.85,2.02,1.37,3.31,1.37c1.29,0,2.46-0.52,3.31-1.37
			C199.12,171.31,199.46,170.8,199.7,170.24z"/>
		<path class="st4" d="M189.35,157.94c0-2.46-1.99-4.45-4.45-4.45c-2.46,0-4.45,1.99-4.45,4.45c0,2.46,1.99,4.45,4.45,4.45
			C187.36,162.39,189.35,160.39,189.35,157.94z"/>
		<path class="st4" d="M232.3,157.94c0-3.02-2.44-5.46-5.46-5.46c-3.01,0-5.46,2.44-5.46,5.46c0,3.01,2.45,5.46,5.46,5.46
			C229.85,163.4,232.3,160.95,232.3,157.94z"/>
		<path class="st4" d="M210.8,157.94c0-2.72-2.21-4.93-4.93-4.93c-2.72,0-4.93,2.21-4.93,4.93c0,2.72,2.21,4.93,4.93,4.93
			C208.59,162.87,210.8,160.66,210.8,157.94z"/>
		<path class="st4" d="M275.47,157.94c0-3.7-3-6.71-6.7-6.71c-3.7,0-6.7,3-6.7,6.71c0,3.7,3,6.7,6.7,6.7
			C272.47,164.64,275.47,161.64,275.47,157.94z"/>
		<path class="st4" d="M253.85,157.94c0-3.34-2.71-6.05-6.05-6.05c-3.34,0-6.05,2.71-6.05,6.05c0,3.34,2.71,6.05,6.05,6.05
			C251.14,163.99,253.85,161.28,253.85,157.94z"/>
		<path class="st4" d="M189.35,74.09c0-2.46-1.99-4.45-4.45-4.45c-2.46,0-4.45,1.99-4.45,4.45c0,2.46,1.99,4.45,4.45,4.45
			C187.36,78.53,189.35,76.54,189.35,74.09z"/>
		<path class="st4" d="M146.6,74.08c0-2-1.62-3.62-3.62-3.62c-2,0-3.62,1.62-3.62,3.62c0,2,1.62,3.62,3.62,3.62
			C144.98,77.71,146.6,76.08,146.6,74.08z"/>
		<path class="st4" d="M167.95,74.08c0-2.22-1.8-4.01-4.01-4.01c-2.22,0-4.01,1.8-4.01,4.01c0,2.22,1.8,4.01,4.01,4.01
			C166.16,78.1,167.95,76.3,167.95,74.08z"/>
		<path class="st4" d="M157.27,63.6c0-2.1-1.71-3.81-3.81-3.81s-3.81,1.71-3.81,3.81c0,2.1,1.71,3.81,3.81,3.81
			S157.27,65.71,157.27,63.6z"/>
		<path class="st4" d="M177.93,65.96c0.46-0.67,0.72-1.49,0.72-2.36c0-0.87-0.27-1.69-0.72-2.36c-0.76-1.12-2.04-1.86-3.5-1.86
			c-0.29,0-0.58,0.03-0.85,0.09c-0.82,0.17-1.56,0.58-2.14,1.15c-0.19,0.19-0.36,0.4-0.52,0.62c-0.3,0.45-0.52,0.96-0.64,1.51
			c-0.06,0.27-0.09,0.56-0.09,0.85c0,0.29,0.03,0.58,0.09,0.85c0.11,0.55,0.33,1.06,0.64,1.51c0.15,0.22,0.32,0.43,0.52,0.63
			c0.57,0.57,1.31,0.98,2.14,1.15c0.28,0.06,0.56,0.09,0.85,0.09C175.88,67.83,177.17,67.09,177.93,65.96z"/>
	</g>
</g>
</svg>
