<?xml version="1.0" encoding="UTF-8" standalone="no"?>
<!DOCTYPE svg PUBLIC "-//W3C//DTD SVG 1.1//EN" "http://www.w3.org/Graphics/SVG/1.1/DTD/svg11.dtd">
<svg width="100%" height="100%" viewBox="0 0 250 31" version="1.1" xmlns="http://www.w3.org/2000/svg" xmlns:xlink="http://www.w3.org/1999/xlink" xml:space="preserve" xmlns:serif="http://www.serif.com/" style="fill-rule:evenodd;clip-rule:evenodd;stroke-linecap:round;stroke-linejoin:round;stroke-miterlimit:1.5;">
    <g transform="matrix(1,0,0,1,0,-39)">
        <path d="M153.484,52.837C152.029,52.837 150.809,51.877 150.383,50.563L87.13,50.563C84.894,50.563 82.79,49.692 81.208,48.11L77.028,43.931C75.824,42.726 74.223,42.063 72.52,42.063L0,42.063L0,40.063L72.52,40.063C74.757,40.063 76.86,40.935 78.442,42.517L82.622,46.696C83.826,47.9 85.427,48.563 87.13,48.563L150.383,48.563C150.809,47.248 152.029,46.289 153.484,46.289C155.29,46.289 156.759,47.757 156.759,49.563C156.759,51.369 155.29,52.837 153.484,52.837ZM153.484,46.789C151.954,46.789 150.71,48.033 150.71,49.563C150.71,51.093 151.954,52.337 153.484,52.337C155.015,52.337 156.259,51.093 156.259,49.563C156.259,48.033 155.015,46.789 153.484,46.789Z" style="fill:rgb(129,70,255);"/>
        <path d="M153.484,52.837C152.029,52.837 150.809,51.877 150.383,50.563L87.13,50.563C84.894,50.563 82.79,49.692 81.208,48.11L77.028,43.931C75.824,42.726 74.223,42.063 72.52,42.063L0,42.063L0,40.063L72.52,40.063C74.757,40.063 76.86,40.935 78.442,42.517L82.622,46.696C83.826,47.9 85.427,48.563 87.13,48.563L150.383,48.563C150.809,47.248 152.029,46.289 153.484,46.289C155.29,46.289 156.759,47.757 156.759,49.563C156.759,51.369 155.29,52.837 153.484,52.837ZM153.484,46.789C151.954,46.789 150.71,48.033 150.71,49.563C150.71,51.093 151.954,52.337 153.484,52.337C155.015,52.337 156.259,51.093 156.259,49.563C156.259,48.033 155.015,46.789 153.484,46.789Z" style="fill:none;fill-rule:nonzero;"/>
        <ellipse cx="160.22" cy="40.102" rx="0.055" ry="0.184" style="fill:none;"/>
        <g transform="matrix(1,0,0,1,-1.05452,-9.79659)">
            <circle cx="154.594" cy="59.423" r="2.772" style="fill:none;stroke:rgb(129,70,255);stroke-width:1.16px;"/>
        </g>
        <g transform="matrix(1,0,0,1,-55.741,6.54527)">
            <circle cx="154.594" cy="59.423" r="2.772" style="fill:none;stroke:rgb(129,70,255);stroke-width:1.16px;"/>
        </g>
        <g transform="matrix(1,0,0,1,-0.0219238,-0.0837838)">
            <path d="M98.836,69.275C97.031,69.275 95.562,67.806 95.562,66C95.562,64.195 97.031,62.726 98.836,62.726C100.292,62.726 101.513,63.686 101.938,65L154.896,65C156.598,65 158.199,64.337 159.404,63.133L167.208,55.329C168.791,53.747 170.895,52.875 173.131,52.875L250,52.875L250,54.875L173.131,54.875C171.429,54.875 169.827,55.539 168.622,56.743L160.818,64.547C159.235,66.129 157.132,67 154.896,67L101.938,67C101.513,68.315 100.292,69.275 98.836,69.275ZM98.836,63.226C97.307,63.226 96.062,64.47 96.062,66C96.062,67.531 97.307,68.775 98.836,68.775C100.367,68.775 101.611,67.531 101.611,66C101.611,64.47 100.367,63.226 98.836,63.226Z" style="fill:rgb(129,70,255);fill-rule:nonzero;"/>
        </g>
    </g>
</svg>
