<svg xmlns="http://www.w3.org/2000/svg" version="1.1" xmlns:xlink="http://www.w3.org/1999/xlink" width="512" height="512" x="0" y="0" viewBox="0 0 512 512" style="enable-background:new 0 0 512 512" xml:space="preserve" class=""><g><path d="m443.9 137-184-104c-1.2-.7-2.6-1-3.9-1s-2.7.3-3.9 1l-184 104c-2.5 1.4-4.1 4.1-4.1 7v223.9c-.1 2.9 1.5 5.7 4.1 7.1l184 104c1.2.7 2.6 1 3.9 1s2.7-.3 3.9-1l184-104c2.5-1.4 4.1-4.2 4.1-7.1V144c0-2.8-1.6-5.6-4.1-7zM80 158.2 240.6 256 80 353.8zm168 300.1L87.8 367.7 248 270.2zm0-216.5L87.8 144.3 248 53.7zm16-188.1 160.2 90.5L264 241.8zm0 404.6V270.2l160.2 97.5zm168-104.5L271.4 256 432 158.2z" fill="#45e6ff" opacity="1" data-original="#000000" class=""></path></g></svg>