<?xml version="1.0" encoding="UTF-8" standalone="no"?>
<!DOCTYPE svg PUBLIC "-//W3C//DTD SVG 1.1//EN" "http://www.w3.org/Graphics/SVG/1.1/DTD/svg11.dtd">
<svg width="100%" height="100%" viewBox="0 0 2835 1418" version="1.1" xmlns="http://www.w3.org/2000/svg" xmlns:xlink="http://www.w3.org/1999/xlink" xml:space="preserve" xmlns:serif="http://www.serif.com/" style="fill-rule:evenodd;clip-rule:evenodd;stroke-linejoin:round;stroke-miterlimit:2;">
    <g transform="matrix(6.12323e-17,1,-1,6.12323e-17,2120.44,-671.297)">
        <g transform="matrix(1.83071,-3.19947e-32,3.64963e-32,1.83071,612.858,-642.688)">
            <path d="M204.753,402.492L246.45,330.271L204.753,258.05L121.361,258.05L79.665,330.271L121.361,402.492L204.753,402.492ZM250.326,330.271L206.692,405.848L119.424,405.848L75.789,330.271L119.424,254.694L206.692,254.694L250.326,330.271Z" style="fill:rgb(204,204,204);fill-rule:nonzero;"/>
        </g>
        <g transform="matrix(1.83071,-3.19947e-32,3.64963e-32,1.83071,612.858,-642.688)">
            <path d="M290.084,550.289L331.782,478.068L290.084,405.848L206.692,405.848L164.995,478.068L206.692,550.289L290.084,550.289ZM335.658,478.068L292.022,553.645L204.753,553.645L161.119,478.068L204.753,402.492L292.022,402.492L335.658,478.068Z" style="fill:rgb(204,204,204);fill-rule:nonzero;"/>
        </g>
        <g transform="matrix(1.83071,-3.19947e-32,3.64963e-32,1.83071,612.858,-642.688)">
            <path d="M375.415,698.086L417.111,625.866L375.415,553.645L292.022,553.645L250.326,625.866L292.022,698.086L375.415,698.086ZM420.987,625.866L377.353,701.443L290.084,701.443L246.45,625.866L290.084,550.289L377.353,550.289L420.987,625.866Z" style="fill:rgb(204,204,204);fill-rule:nonzero;"/>
        </g>
        <g transform="matrix(1.83071,-3.19947e-32,3.64963e-32,1.83071,612.858,-642.688)">
            <path d="M119.424,254.694L161.12,182.472L119.424,110.252L36.031,110.252L-5.666,182.472L36.031,254.694L119.424,254.694ZM164.996,182.472L121.361,258.05L34.092,258.05L-9.541,182.472L34.092,106.895L121.361,106.895L164.996,182.472Z" style="fill:rgb(204,204,204);fill-rule:nonzero;"/>
        </g>
        <g transform="matrix(1.83071,-3.19947e-32,3.64963e-32,1.83071,612.858,-642.688)">
            <path d="M460.746,550.289L502.443,478.068L460.746,405.848L377.353,405.848L335.656,478.068L377.353,550.289L460.746,550.289ZM506.319,478.068L462.683,553.645L375.415,553.645L331.78,478.068L375.415,402.492L462.683,402.492L506.319,478.068Z" style="fill:rgb(204,204,204);fill-rule:nonzero;"/>
        </g>
        <g transform="matrix(1.83071,-3.19947e-32,3.64963e-32,1.83071,612.858,-642.688)">
            <path d="M460.746,402.492L502.443,330.271L460.746,258.05L377.353,258.05L335.656,330.271L377.353,402.492L460.746,402.492ZM506.319,330.271L462.683,405.848L375.415,405.848L331.78,330.271L375.415,254.694L462.683,254.694L506.319,330.271Z" style="fill:rgb(204,204,204);fill-rule:nonzero;"/>
        </g>
        <g transform="matrix(1.83071,-3.19947e-32,3.64963e-32,1.83071,612.858,-642.688)">
            <path d="M589.126,476.39L630.823,404.17L589.126,331.949L505.733,331.949L464.037,404.17L505.733,476.39L589.126,476.39ZM634.699,404.17L591.063,479.746L503.795,479.746L460.161,404.17L503.795,328.593L591.063,328.593L591.548,329.432L634.699,404.17Z" style="fill:rgb(204,204,204);fill-rule:nonzero;"/>
        </g>
        <g transform="matrix(1.83071,-3.19947e-32,3.64963e-32,1.83071,612.858,-642.688)">
            <path d="M161.762,624.188L203.458,551.967L161.762,479.746L78.369,479.746L36.671,551.967L78.369,624.188L161.762,624.188ZM207.334,551.967L163.7,627.543L76.431,627.543L32.795,551.967L76.431,476.39L163.7,476.39L207.334,551.967Z" style="fill:rgb(204,204,204);fill-rule:nonzero;"/>
        </g>
        <g transform="matrix(1.83071,-3.19947e-32,3.64963e-32,1.83071,612.858,-642.688)">
            <path d="M290.084,254.694L331.782,182.472L290.084,110.252L206.692,110.252L164.996,182.472L206.692,254.694L290.084,254.694ZM335.658,182.472L292.023,258.05L204.755,258.05L161.12,182.472L204.755,106.895L292.023,106.895L335.658,182.472Z" style="fill:rgb(204,204,204);fill-rule:nonzero;"/>
        </g>
        <g transform="matrix(1.83071,-3.19947e-32,3.64963e-32,1.83071,612.858,-642.688)">
            <path d="M375.416,106.895L417.113,34.676L375.416,-37.545L292.023,-37.545L250.326,34.676L292.023,106.895L375.416,106.895ZM420.989,34.676L377.353,110.252L290.084,110.252L246.45,34.676L290.084,-40.901L377.353,-40.901L420.989,34.676Z" style="fill:rgb(204,204,204);fill-rule:nonzero;"/>
        </g>
        <g transform="matrix(1.83071,-3.19947e-32,3.64963e-32,1.83071,612.858,-642.688)">
            <path d="M460.746,254.694L502.443,182.472L460.746,110.252L377.353,110.252L335.656,182.472L377.353,254.694L460.746,254.694ZM506.319,182.472L462.685,258.05L375.416,258.05L331.78,182.472L375.416,106.895L462.685,106.895L506.319,182.472Z" style="fill:rgb(204,204,204);fill-rule:nonzero;"/>
        </g>
        <g transform="matrix(1.83071,-3.19947e-32,3.64963e-32,1.83071,612.858,-642.688)">
            <path d="M674.458,624.188L716.155,551.967L674.458,479.746L591.065,479.746L549.368,551.967L591.065,624.188L674.458,624.188ZM720.03,551.967L676.395,627.543L589.128,627.543L588.643,626.705L545.492,551.967L589.128,476.39L676.395,476.39L676.88,477.229L720.03,551.967Z" style="fill:rgb(204,204,204);fill-rule:nonzero;"/>
        </g>
        <g transform="matrix(1.83071,-3.19947e-32,3.64963e-32,1.83071,612.858,-642.688)">
            <path d="M460.746,845.884L502.443,773.663L460.746,701.443L377.353,701.443L335.656,773.663L377.353,845.884L460.746,845.884ZM506.319,773.663L462.685,849.241L375.416,849.241L331.78,773.663L375.416,698.086L462.685,698.086L506.319,773.663Z" style="fill:rgb(204,204,204);fill-rule:nonzero;"/>
        </g>
        <g transform="matrix(1.83071,-3.19947e-32,3.64963e-32,1.83071,612.858,-642.688)">
            <path d="M290.084,845.884L331.782,773.663L290.084,701.443L206.692,701.443L164.995,773.663L206.692,845.884L290.084,845.884ZM335.658,773.663L292.022,849.241L204.753,849.241L161.119,773.663L204.753,698.086L292.022,698.086L335.658,773.663Z" style="fill:rgb(204,204,204);fill-rule:nonzero;"/>
        </g>
        <g transform="matrix(1.83071,-3.19947e-32,3.64963e-32,1.83071,612.858,-642.688)">
            <path d="M76.431,771.985L118.127,699.764L76.431,627.543L-6.961,627.543L-48.659,699.764L-6.961,771.985L76.431,771.985ZM122.003,699.764L78.369,775.341L-8.899,775.341L-52.535,699.764L-8.899,624.188L78.369,624.188L122.003,699.764Z" style="fill:rgb(204,204,204);fill-rule:nonzero;"/>
        </g>
        <g transform="matrix(1.83071,-3.19947e-32,3.64963e-32,1.83071,612.858,-642.688)">
            <path d="M76.431,476.39L118.127,404.17L76.431,331.949L-6.961,331.949L-48.659,404.17L-6.961,476.39L76.431,476.39ZM122.003,404.17L78.369,479.746L-8.899,479.746L-52.535,404.17L-8.899,328.593L78.369,328.593L122.003,404.17Z" style="fill:rgb(204,204,204);fill-rule:nonzero;"/>
        </g>
        <g transform="matrix(1.83071,-3.19947e-32,3.64963e-32,1.83071,612.858,-642.688)">
            <path d="M34.092,106.895L75.789,34.676L34.092,-37.545L-49.3,-37.545L-90.997,34.676L-49.3,106.895L34.092,106.895ZM79.665,34.676L36.031,110.252L-51.237,110.252L-94.873,34.676L-51.237,-40.901L36.031,-40.901L79.665,34.676Z" style="fill:rgb(204,204,204);fill-rule:nonzero;"/>
        </g>
        <g transform="matrix(1.83071,-3.19947e-32,3.64963e-32,1.83071,612.858,-642.688)">
            <path d="M-8.899,328.593L32.796,256.372L-8.899,184.151L-92.292,184.151L-133.99,256.372L-92.292,328.593L-8.899,328.593ZM36.672,256.372L-6.962,331.949L-94.231,331.949L-137.866,256.372L-94.231,180.794L-6.962,180.794L36.672,256.372Z" style="fill:rgb(204,204,204);fill-rule:nonzero;"/>
        </g>
        <g transform="matrix(1.83071,-3.19947e-32,3.64963e-32,1.83071,612.858,-642.688)">
            <path d="M204.755,993.681L246.45,921.461L204.755,849.241L121.362,849.241L79.664,921.461L121.362,993.681L204.755,993.681ZM250.326,921.461L206.692,997.037L119.424,997.037L75.788,921.461L119.424,845.884L206.692,845.884L250.326,921.461Z" style="fill:rgb(204,204,204);fill-rule:nonzero;"/>
        </g>
        <g transform="matrix(1.83071,-3.19947e-32,3.64963e-32,1.83071,612.858,-642.688)">
            <path d="M631.41,254.694L673.105,182.472L631.41,110.252L548.018,110.252L506.319,182.472L548.018,254.694L631.41,254.694ZM676.981,182.472L633.347,258.05L546.08,258.05L545.595,257.211L502.443,182.472L546.08,106.895L633.347,106.895L633.832,107.735L676.981,182.472Z" style="fill:rgb(204,204,204);fill-rule:nonzero;"/>
        </g>
        <g transform="matrix(1.83071,-3.19947e-32,3.64963e-32,1.83071,612.858,-642.688)">
            <path d="M589.128,919.783L630.823,847.562L589.128,775.341L505.735,775.341L464.037,847.562L505.735,919.783L589.128,919.783ZM634.699,847.562L591.065,923.139L503.796,923.139L460.161,847.562L503.796,771.985L591.065,771.985L591.55,772.825L634.699,847.562Z" style="fill:rgb(204,204,204);fill-rule:nonzero;"/>
        </g>
        <g transform="matrix(1.83071,-3.19947e-32,3.64963e-32,1.83071,612.858,-642.688)">
            <path d="M503.796,1067.58L545.494,995.36L503.796,923.139L420.404,923.139L378.707,995.36L420.404,1067.58L503.796,1067.58ZM549.37,995.36L505.733,1070.94L418.467,1070.94L374.831,995.36L418.467,919.783L505.733,919.783L549.37,995.36Z" style="fill:rgb(204,204,204);fill-rule:nonzero;"/>
        </g>
        <g transform="matrix(1.83071,-3.19947e-32,3.64963e-32,1.83071,612.858,-642.688)">
            <path d="M759.789,919.783L801.486,847.562L759.789,775.341L676.396,775.341L634.699,847.562L676.396,919.783L759.789,919.783ZM805.362,847.562L761.726,923.139L674.459,923.139L673.974,922.3L630.823,847.562L674.459,771.985L761.726,771.985L762.211,772.825L805.362,847.562Z" style="fill:rgb(204,204,204);fill-rule:nonzero;"/>
        </g>
        <g transform="matrix(1.83071,-3.19947e-32,3.64963e-32,1.83071,612.858,-642.688)">
            <path d="M34.092,993.681L75.789,921.461L34.092,849.241L-49.298,849.241L-90.997,921.461L-49.298,993.681L34.092,993.681ZM79.665,921.461L36.031,997.037L-51.237,997.037L-94.873,921.461L-51.237,845.884L36.031,845.884L79.665,921.461Z" style="fill:rgb(204,204,204);fill-rule:nonzero;"/>
        </g>
        <g transform="matrix(1.83071,-3.19947e-32,3.64963e-32,1.83071,612.858,-642.688)">
            <path d="M546.079,698.086L587.774,625.866L546.079,553.645L462.686,553.645L420.987,625.866L462.686,698.086L546.079,698.086ZM591.65,625.866L548.016,701.443L460.747,701.443L417.111,625.866L460.747,550.289L548.016,550.289L548.501,551.127L591.65,625.866Z" style="fill:rgb(204,204,204);fill-rule:nonzero;"/>
        </g>
        <g transform="matrix(1.83071,-3.19947e-32,3.64963e-32,1.83071,612.858,-642.688)">
            <path d="M332.735,1363.1L374.43,1290.87L332.735,1218.65L249.341,1218.65L207.645,1290.87L249.341,1363.1L332.735,1363.1ZM378.306,1290.87L334.672,1366.45L247.403,1366.45L203.769,1290.87L247.403,1215.3L334.672,1215.3L335.157,1216.14L378.306,1290.87Z" style="fill:rgb(204,204,204);fill-rule:nonzero;"/>
        </g>
        <g transform="matrix(1.83071,-3.19947e-32,3.64963e-32,1.83071,612.858,-642.688)">
            <path d="M247.354,1511.1L289.05,1438.88L247.354,1366.66L163.961,1366.66L122.264,1438.88L163.961,1511.1L247.354,1511.1ZM292.926,1438.88L249.292,1514.46L162.023,1514.46L118.388,1438.88L162.023,1363.31L249.292,1363.31L249.776,1364.14L292.926,1438.88Z" style="fill:rgb(204,204,204);fill-rule:nonzero;"/>
        </g>
        <g transform="matrix(1.83071,-3.19947e-32,3.64963e-32,1.83071,612.858,-642.688)">
            <path d="M589.138,1510.88L630.833,1438.66L589.138,1366.44L505.744,1366.44L464.047,1438.66L505.744,1510.88L589.138,1510.88ZM634.709,1438.66L591.075,1514.24L503.806,1514.24L460.171,1438.66L503.806,1363.08L591.075,1363.08L591.56,1363.92L634.709,1438.66Z" style="fill:rgb(204,204,204);fill-rule:nonzero;"/>
        </g>
        <g transform="matrix(1.83071,-3.19947e-32,3.64963e-32,1.83071,612.858,-642.688)">
            <path d="M416.573,1363.09L458.269,1290.87L416.573,1218.64L333.18,1218.64L291.482,1290.87L333.18,1363.09L416.573,1363.09ZM462.145,1290.87L418.51,1366.44L331.242,1366.44L287.607,1290.87L331.242,1215.29L418.51,1215.29L418.995,1216.13L462.145,1290.87Z" style="fill:rgb(204,204,204);fill-rule:nonzero;"/>
        </g>
        <g transform="matrix(1.83071,-3.19947e-32,3.64963e-32,1.83071,612.858,-642.688)">
            <path d="M204.795,106.896L246.492,34.676L204.795,-37.545L121.403,-37.545L79.706,34.676L121.403,106.896L204.795,106.896ZM250.368,34.676L206.733,110.253L119.465,110.253L75.83,34.676L119.465,-40.901L206.733,-40.901L250.368,34.676Z" style="fill:rgb(128,128,128);fill-rule:nonzero;"/>
        </g>
        <g transform="matrix(1.83071,-3.19947e-32,3.64963e-32,1.83071,612.858,-642.688)">
            <path d="M546.089,106.909L587.786,34.689L546.089,-37.531L462.697,-37.531L421.001,34.689L462.697,106.909L546.089,106.909ZM591.662,34.689L548.027,110.266L460.76,110.266L417.125,34.689L460.76,-40.888L548.027,-40.888L591.662,34.689Z" style="fill:rgb(128,128,128);fill-rule:nonzero;"/>
        </g>
        <g transform="matrix(1.83071,-3.19947e-32,3.64963e-32,1.83071,612.858,-642.688)">
            <path d="M460.745,254.694L502.442,182.473L460.745,110.253L377.353,110.253L335.656,182.473L377.353,254.694L460.745,254.694ZM506.318,182.473L462.682,258.05L375.415,258.05L331.78,182.473L375.415,106.896L462.682,106.896L506.318,182.473Z" style="fill:rgb(128,128,128);fill-rule:nonzero;"/>
        </g>
        <g transform="matrix(1.83071,-3.19947e-32,3.64963e-32,1.83071,612.858,-642.688)">
            <path d="M204.764,698.006L246.46,625.784L204.764,553.565L121.371,553.565L79.674,625.784L121.371,698.006L204.764,698.006ZM250.336,625.784L206.701,701.363L119.434,701.363L75.798,625.784L119.434,550.207L206.701,550.207L250.336,625.784Z" style="fill:rgb(128,128,128);fill-rule:nonzero;"/>
        </g>
        <g transform="matrix(1.83071,-3.19947e-32,3.64963e-32,1.83071,612.858,-642.688)">
            <path d="M290.095,845.804L331.791,773.583L290.095,701.363L206.701,701.363L165.005,773.583L206.701,845.804L290.095,845.804ZM335.667,773.583L292.032,849.159L204.764,849.159L161.129,773.583L204.764,698.006L292.032,698.006L292.517,698.845L335.667,773.583Z" style="fill:rgb(128,128,128);fill-rule:nonzero;"/>
        </g>
        <g transform="matrix(1.83071,-3.19947e-32,3.64963e-32,1.83071,612.858,-642.688)">
            <path d="M375.425,993.601L417.121,921.38L375.425,849.159L292.032,849.159L250.335,921.38L292.032,993.601L375.425,993.601ZM420.997,921.38L377.362,996.957L290.095,996.957L289.609,996.118L246.459,921.38L290.095,845.804L377.362,845.804L377.847,846.643L420.997,921.38Z" style="fill:rgb(128,128,128);fill-rule:nonzero;"/>
        </g>
        <g transform="matrix(1.83071,-3.19947e-32,3.64963e-32,1.83071,612.858,-642.688)">
            <path d="M119.433,550.207L161.129,477.987L119.433,405.766L36.04,405.766L-5.656,477.987L36.04,550.207L119.433,550.207ZM165.005,477.987L121.371,553.565L34.102,553.565L-9.532,477.987L34.102,402.41L121.371,402.41L165.005,477.987Z" style="fill:rgb(128,128,128);fill-rule:nonzero;"/>
        </g>
        <g transform="matrix(1.83071,-3.19947e-32,3.64963e-32,1.83071,612.858,-642.688)">
            <path d="M460.755,845.804L502.452,773.583L460.755,701.363L377.362,701.363L335.666,773.583L377.362,845.804L460.755,845.804ZM506.328,773.583L462.692,849.159L375.425,849.159L374.94,848.321L331.79,773.583L375.425,698.006L462.692,698.006L463.178,698.845L506.328,773.583Z" style="fill:rgb(128,128,128);fill-rule:nonzero;"/>
        </g>
        <g transform="matrix(1.83071,-3.19947e-32,3.64963e-32,1.83071,612.858,-642.688)">
            <path d="M460.755,698.006L502.452,625.784L460.755,553.565L377.362,553.565L335.666,625.784L377.362,698.006L460.755,698.006ZM506.328,625.784L462.692,701.363L375.425,701.363L374.94,700.524L331.79,625.784L375.425,550.207L462.692,550.207L463.178,551.047L506.328,625.784Z" style="fill:rgb(128,128,128);fill-rule:nonzero;"/>
        </g>
        <g transform="matrix(1.83071,-3.19947e-32,3.64963e-32,1.83071,612.858,-642.688)">
            <path d="M589.136,771.905L630.832,699.684L589.136,627.463L505.743,627.463L464.046,699.684L505.743,771.905L589.136,771.905ZM634.708,699.684L591.073,775.261L503.806,775.261L503.32,774.422L460.17,699.684L503.806,624.107L591.073,624.107L591.558,624.946L634.708,699.684Z" style="fill:rgb(128,128,128);fill-rule:nonzero;"/>
        </g>
        <g transform="matrix(1.83071,-3.19947e-32,3.64963e-32,1.83071,612.858,-642.688)">
            <path d="M161.771,919.702L203.468,847.482L161.771,775.261L78.378,775.261L36.681,847.482L78.378,919.702L161.771,919.702ZM207.344,847.482L163.708,923.059L76.439,923.059L32.805,847.482L76.439,771.905L163.708,771.905L207.344,847.482Z" style="fill:rgb(128,128,128);fill-rule:nonzero;"/>
        </g>
        <g transform="matrix(1.83071,-3.19947e-32,3.64963e-32,1.83071,612.858,-642.688)">
            <path d="M290.095,550.207L331.792,477.987L290.095,405.766L206.702,405.766L165.005,477.987L206.702,550.207L290.095,550.207ZM335.667,477.987L292.032,553.565L204.764,553.565L161.129,477.987L204.764,402.41L292.032,402.41L292.518,403.249L335.667,477.987Z" style="fill:rgb(128,128,128);fill-rule:nonzero;"/>
        </g>
        <g transform="matrix(1.83071,-3.19947e-32,3.64963e-32,1.83071,612.858,-642.688)">
            <path d="M375.426,402.41L417.122,330.19L375.426,257.969L292.032,257.969L250.335,330.19L292.032,402.41L375.426,402.41ZM420.998,330.19L377.363,405.766L290.095,405.766L289.61,404.928L246.459,330.19L290.095,254.613L377.363,254.613L377.848,255.452L420.998,330.19Z" style="fill:rgb(128,128,128);fill-rule:nonzero;"/>
        </g>
        <g transform="matrix(1.83071,-3.19947e-32,3.64963e-32,1.83071,612.858,-642.688)">
            <path d="M460.756,550.207L502.453,477.987L460.756,405.766L377.363,405.766L335.666,477.987L377.363,550.207L460.756,550.207ZM506.329,477.987L462.693,553.565L375.426,553.565L374.941,552.725L331.79,477.987L375.426,402.41L462.693,402.41L463.179,403.249L506.329,477.987Z" style="fill:rgb(128,128,128);fill-rule:nonzero;"/>
        </g>
        <g transform="matrix(1.83071,-3.19947e-32,3.64963e-32,1.83071,612.858,-642.688)">
            <path d="M674.467,919.702L716.164,847.482L674.467,775.261L591.074,775.261L549.377,847.482L591.074,919.702L674.467,919.702ZM720.04,847.482L676.404,923.059L589.137,923.059L588.652,922.219L545.501,847.482L589.137,771.905L676.404,771.905L676.89,772.743L720.04,847.482Z" style="fill:rgb(128,128,128);fill-rule:nonzero;"/>
        </g>
        <g transform="matrix(1.83071,-3.19947e-32,3.64963e-32,1.83071,612.858,-642.688)">
            <path d="M460.756,1141.4L502.453,1069.18L460.756,996.957L377.363,996.957L335.666,1069.18L377.363,1141.4L460.756,1141.4ZM506.329,1069.18L462.693,1144.76L375.426,1144.76L374.941,1143.92L331.79,1069.18L375.426,993.601L462.693,993.601L463.179,994.44L506.329,1069.18Z" style="fill:rgb(128,128,128);fill-rule:nonzero;"/>
        </g>
        <g transform="matrix(1.83071,-3.19947e-32,3.64963e-32,1.83071,612.858,-642.688)">
            <path d="M290.095,1141.4L331.791,1069.18L290.095,996.957L206.701,996.957L165.004,1069.18L206.701,1141.4L290.095,1141.4ZM335.667,1069.18L292.032,1144.76L204.764,1144.76L161.128,1069.18L204.764,993.601L292.032,993.601L292.517,994.44L335.667,1069.18Z" style="fill:rgb(128,128,128);fill-rule:nonzero;"/>
        </g>
        <g transform="matrix(1.83071,-3.19947e-32,3.64963e-32,1.83071,612.858,-642.688)">
            <path d="M76.439,1067.5L118.137,995.28L76.439,923.059L-6.952,923.059L-48.649,995.28L-6.952,1067.5L76.439,1067.5ZM122.013,995.28L78.378,1070.86L-8.889,1070.86L-52.525,995.28L-8.889,919.702L78.378,919.702L122.013,995.28Z" style="fill:rgb(128,128,128);fill-rule:nonzero;"/>
        </g>
        <g transform="matrix(1.83071,-3.19947e-32,3.64963e-32,1.83071,612.858,-642.688)">
            <path d="M76.439,771.905L118.137,699.684L76.439,627.463L-6.952,627.463L-48.649,699.684L-6.952,771.905L76.439,771.905ZM122.013,699.684L78.378,775.261L-8.889,775.261L-52.525,699.684L-8.889,624.107L78.378,624.107L122.013,699.684Z" style="fill:rgb(128,128,128);fill-rule:nonzero;"/>
        </g>
        <g transform="matrix(1.83071,-3.19947e-32,3.64963e-32,1.83071,612.858,-642.688)">
            <path d="M34.102,402.41L75.799,330.19L34.102,257.969L-49.29,257.969L-90.987,330.19L-49.29,402.41L34.102,402.41ZM79.675,330.19L36.04,405.766L-51.228,405.766L-94.863,330.19L-51.228,254.613L36.04,254.613L79.675,330.19Z" style="fill:rgb(128,128,128);fill-rule:nonzero;"/>
        </g>
        <g transform="matrix(1.83071,-3.19947e-32,3.64963e-32,1.83071,612.858,-642.688)">
            <path d="M-8.89,624.107L32.805,551.886L-8.89,479.665L-92.283,479.665L-133.981,551.886L-92.283,624.107L-8.89,624.107ZM36.681,551.886L-6.952,627.463L-94.221,627.463L-137.857,551.886L-94.221,476.309L-6.952,476.309L36.681,551.886Z" style="fill:rgb(128,128,128);fill-rule:nonzero;"/>
        </g>
        <g transform="matrix(1.83071,-3.19947e-32,3.64963e-32,1.83071,612.858,-642.688)">
            <path d="M204.764,1289.2L246.461,1216.98L204.764,1144.76L121.372,1144.76L79.673,1216.98L121.372,1289.2L204.764,1289.2ZM250.337,1216.98L206.702,1292.55L119.434,1292.55L75.797,1216.98L119.434,1141.4L206.702,1141.4L250.337,1216.98Z" style="fill:rgb(128,128,128);fill-rule:nonzero;"/>
        </g>
        <g transform="matrix(1.83071,-3.19947e-32,3.64963e-32,1.83071,612.858,-642.688)">
            <path d="M631.419,550.207L673.115,477.987L631.419,405.766L548.026,405.766L506.329,477.987L548.026,550.207L631.419,550.207ZM676.991,477.987L633.356,553.565L546.089,553.565L545.604,552.725L502.453,477.987L546.089,402.41L633.356,402.41L633.841,403.249L676.991,477.987Z" style="fill:rgb(128,128,128);fill-rule:nonzero;"/>
        </g>
        <g transform="matrix(1.83071,-3.19947e-32,3.64963e-32,1.83071,612.858,-642.688)">
            <path d="M589.137,1215.3L630.833,1143.08L589.137,1070.86L505.744,1070.86L464.046,1143.08L505.744,1215.3L589.137,1215.3ZM634.709,1143.08L591.074,1218.65L503.807,1218.65L503.322,1217.81L460.17,1143.08L503.807,1067.5L591.074,1067.5L591.559,1068.34L634.709,1143.08Z" style="fill:rgb(128,128,128);fill-rule:nonzero;"/>
        </g>
        <g transform="matrix(1.83071,-3.19947e-32,3.64963e-32,1.83071,612.858,-642.688)">
            <path d="M503.806,1363.1L545.502,1290.87L503.806,1218.65L420.414,1218.65L378.716,1290.87L420.414,1363.1L503.806,1363.1ZM549.378,1290.87L505.743,1366.45L418.477,1366.45L417.992,1365.61L374.84,1290.87L418.477,1215.3L505.743,1215.3L506.229,1216.14L549.378,1290.87Z" style="fill:rgb(128,128,128);fill-rule:nonzero;"/>
        </g>
        <g transform="matrix(1.83071,-3.19947e-32,3.64963e-32,1.83071,612.858,-642.688)">
            <path d="M759.799,1215.3L801.495,1143.08L759.799,1070.86L676.406,1070.86L634.708,1143.08L676.406,1215.3L759.799,1215.3ZM805.371,1143.08L761.736,1218.65L674.469,1218.65L673.984,1217.81L630.832,1143.08L674.469,1067.5L761.736,1067.5L762.221,1068.34L805.371,1143.08Z" style="fill:rgb(128,128,128);fill-rule:nonzero;"/>
        </g>
        <g transform="matrix(1.83071,-3.19947e-32,3.64963e-32,1.83071,612.858,-642.688)">
            <path d="M34.102,1289.2L75.799,1216.98L34.102,1144.76L-49.289,1144.76L-90.987,1216.98L-49.289,1289.2L34.102,1289.2ZM79.675,1216.98L36.04,1292.55L-51.227,1292.55L-94.863,1216.98L-51.227,1141.4L36.04,1141.4L79.675,1216.98Z" style="fill:rgb(128,128,128);fill-rule:nonzero;"/>
        </g>
        <g transform="matrix(1.83071,-3.19947e-32,3.64963e-32,1.83071,612.858,-642.688)">
            <path d="M546.088,993.601L587.784,921.38L546.088,849.159L462.695,849.159L420.997,921.38L462.695,993.601L546.088,993.601ZM591.66,921.38L548.025,996.957L460.758,996.957L460.273,996.118L417.121,921.38L460.758,845.804L548.025,845.804L548.51,846.643L591.66,921.38Z" style="fill:rgb(128,128,128);fill-rule:nonzero;"/>
        </g>
    </g>
</svg>
