<?xml version="1.0" encoding="UTF-8" standalone="no"?>
<!DOCTYPE svg PUBLIC "-//W3C//DTD SVG 1.1//EN" "http://www.w3.org/Graphics/SVG/1.1/DTD/svg11.dtd">
<svg width="100%" height="100%" viewBox="0 0 773 1418" version="1.1" xmlns="http://www.w3.org/2000/svg" xmlns:xlink="http://www.w3.org/1999/xlink" xml:space="preserve" xmlns:serif="http://www.serif.com/" style="fill-rule:evenodd;clip-rule:evenodd;stroke-linejoin:round;stroke-miterlimit:2;">
    <g transform="matrix(1,0,0,1,-2062,0)">
        <path d="M2414.32,402.492L2456.01,330.271L2414.32,258.05L2330.93,258.05L2289.23,330.271L2330.93,402.492L2414.32,402.492ZM2459.89,330.271L2416.26,405.848L2328.99,405.848L2285.35,330.271L2328.99,254.694L2416.26,254.694L2459.89,330.271Z" style="fill:rgb(204,204,204);fill-rule:nonzero;"/>
        <path d="M2499.65,550.289L2541.35,478.068L2499.65,405.848L2416.26,405.848L2374.56,478.068L2416.26,550.289L2499.65,550.289ZM2545.22,478.068L2501.59,553.645L2414.32,553.645L2370.68,478.068L2414.32,402.492L2501.59,402.492L2545.22,478.068Z" style="fill:rgb(204,204,204);fill-rule:nonzero;"/>
        <path d="M2584.98,698.086L2626.68,625.866L2584.98,553.645L2501.59,553.645L2459.89,625.866L2501.59,698.086L2584.98,698.086ZM2630.55,625.866L2586.92,701.443L2499.65,701.443L2456.01,625.866L2499.65,550.289L2586.92,550.289L2630.55,625.866Z" style="fill:rgb(204,204,204);fill-rule:nonzero;"/>
        <path d="M2328.99,254.694L2370.68,182.472L2328.99,110.252L2245.6,110.252L2203.9,182.472L2245.6,254.694L2328.99,254.694ZM2374.56,182.472L2330.93,258.05L2243.66,258.05L2200.02,182.472L2243.66,106.895L2330.93,106.895L2374.56,182.472Z" style="fill:rgb(204,204,204);fill-rule:nonzero;"/>
        <path d="M2670.31,550.289L2712.01,478.068L2670.31,405.848L2586.92,405.848L2545.22,478.068L2586.92,550.289L2670.31,550.289ZM2715.88,478.068L2672.25,553.645L2584.98,553.645L2541.34,478.068L2584.98,402.492L2672.25,402.492L2715.88,478.068Z" style="fill:rgb(204,204,204);fill-rule:nonzero;"/>
        <path d="M2670.31,402.492L2712.01,330.271L2670.31,258.05L2586.92,258.05L2545.22,330.271L2586.92,402.492L2670.31,402.492ZM2715.88,330.271L2672.25,405.848L2584.98,405.848L2541.34,330.271L2584.98,254.694L2672.25,254.694L2715.88,330.271Z" style="fill:rgb(204,204,204);fill-rule:nonzero;"/>
        <path d="M2798.69,476.39L2840.39,404.17L2798.69,331.949L2715.3,331.949L2673.6,404.17L2715.3,476.39L2798.69,476.39ZM2844.26,404.17L2800.63,479.746L2713.36,479.746L2669.72,404.17L2713.36,328.593L2800.63,328.593L2801.11,329.432L2844.26,404.17Z" style="fill:rgb(204,204,204);fill-rule:nonzero;"/>
        <path d="M2371.33,624.188L2413.02,551.967L2371.33,479.746L2287.93,479.746L2246.24,551.967L2287.93,624.188L2371.33,624.188ZM2416.9,551.967L2373.26,627.543L2286,627.543L2242.36,551.967L2286,476.39L2373.26,476.39L2416.9,551.967Z" style="fill:rgb(204,204,204);fill-rule:nonzero;"/>
        <path d="M2499.65,254.694L2541.35,182.472L2499.65,110.252L2416.26,110.252L2374.56,182.472L2416.26,254.694L2499.65,254.694ZM2545.22,182.472L2501.59,258.05L2414.32,258.05L2370.68,182.472L2414.32,106.895L2501.59,106.895L2545.22,182.472Z" style="fill:rgb(204,204,204);fill-rule:nonzero;"/>
        <path d="M2584.98,106.895L2626.68,34.676L2584.98,-37.545L2501.59,-37.545L2459.89,34.676L2501.59,106.895L2584.98,106.895ZM2630.55,34.676L2586.92,110.252L2499.65,110.252L2456.01,34.676L2499.65,-40.901L2586.92,-40.901L2630.55,34.676Z" style="fill:rgb(204,204,204);fill-rule:nonzero;"/>
        <path d="M2670.31,254.694L2712.01,182.472L2670.31,110.252L2586.92,110.252L2545.22,182.472L2586.92,254.694L2670.31,254.694ZM2715.88,182.472L2672.25,258.05L2584.98,258.05L2541.34,182.472L2584.98,106.895L2672.25,106.895L2715.88,182.472Z" style="fill:rgb(204,204,204);fill-rule:nonzero;"/>
        <path d="M2884.02,624.188L2925.72,551.967L2884.02,479.746L2800.63,479.746L2758.93,551.967L2800.63,624.188L2884.02,624.188ZM2929.59,551.967L2885.96,627.543L2798.69,627.543L2798.21,626.705L2755.06,551.967L2798.69,476.39L2885.96,476.39L2886.44,477.229L2929.59,551.967Z" style="fill:rgb(204,204,204);fill-rule:nonzero;"/>
        <path d="M2670.31,845.884L2712.01,773.663L2670.31,701.443L2586.92,701.443L2545.22,773.663L2586.92,845.884L2670.31,845.884ZM2715.88,773.663L2672.25,849.241L2584.98,849.241L2541.34,773.663L2584.98,698.086L2672.25,698.086L2715.88,773.663Z" style="fill:rgb(204,204,204);fill-rule:nonzero;"/>
        <path d="M2499.65,845.884L2541.35,773.663L2499.65,701.443L2416.26,701.443L2374.56,773.663L2416.26,845.884L2499.65,845.884ZM2545.22,773.663L2501.59,849.241L2414.32,849.241L2370.68,773.663L2414.32,698.086L2501.59,698.086L2545.22,773.663Z" style="fill:rgb(204,204,204);fill-rule:nonzero;"/>
        <path d="M2286,771.985L2327.69,699.764L2286,627.543L2202.6,627.543L2160.9,699.764L2202.6,771.985L2286,771.985ZM2331.57,699.764L2287.93,775.341L2200.67,775.341L2157.03,699.764L2200.67,624.188L2287.93,624.188L2331.57,699.764Z" style="fill:rgb(204,204,204);fill-rule:nonzero;"/>
        <path d="M2286,476.39L2327.69,404.17L2286,331.949L2202.6,331.949L2160.9,404.17L2202.6,476.39L2286,476.39ZM2331.57,404.17L2287.93,479.746L2200.67,479.746L2157.03,404.17L2200.67,328.593L2287.93,328.593L2331.57,404.17Z" style="fill:rgb(204,204,204);fill-rule:nonzero;"/>
        <path d="M2243.66,106.895L2285.35,34.676L2243.66,-37.545L2160.26,-37.545L2118.57,34.676L2160.26,106.895L2243.66,106.895ZM2289.23,34.676L2245.6,110.252L2158.33,110.252L2114.69,34.676L2158.33,-40.901L2245.6,-40.901L2289.23,34.676Z" style="fill:rgb(204,204,204);fill-rule:nonzero;"/>
        <path d="M2200.67,328.593L2242.36,256.372L2200.67,184.151L2117.27,184.151L2075.57,256.372L2117.27,328.593L2200.67,328.593ZM2246.24,256.372L2202.6,331.949L2115.33,331.949L2071.7,256.372L2115.33,180.794L2202.6,180.794L2246.24,256.372Z" style="fill:rgb(204,204,204);fill-rule:nonzero;"/>
        <path d="M2414.32,993.681L2456.01,921.461L2414.32,849.241L2330.93,849.241L2289.23,921.461L2330.93,993.681L2414.32,993.681ZM2459.89,921.461L2416.26,997.037L2328.99,997.037L2285.35,921.461L2328.99,845.884L2416.26,845.884L2459.89,921.461Z" style="fill:rgb(204,204,204);fill-rule:nonzero;"/>
        <path d="M2840.97,254.694L2882.67,182.472L2840.97,110.252L2757.58,110.252L2715.88,182.472L2757.58,254.694L2840.97,254.694ZM2886.55,182.472L2842.91,258.05L2755.64,258.05L2755.16,257.211L2712.01,182.472L2755.64,106.895L2842.91,106.895L2843.4,107.735L2886.55,182.472Z" style="fill:rgb(204,204,204);fill-rule:nonzero;"/>
        <path d="M2798.69,919.783L2840.39,847.562L2798.69,775.341L2715.3,775.341L2673.6,847.562L2715.3,919.783L2798.69,919.783ZM2844.26,847.562L2800.63,923.139L2713.36,923.139L2669.72,847.562L2713.36,771.985L2800.63,771.985L2801.11,772.825L2844.26,847.562Z" style="fill:rgb(204,204,204);fill-rule:nonzero;"/>
        <path d="M2713.36,1067.58L2755.06,995.36L2713.36,923.139L2629.97,923.139L2588.27,995.36L2629.97,1067.58L2713.36,1067.58ZM2758.93,995.36L2715.3,1070.94L2628.03,1070.94L2584.4,995.36L2628.03,919.783L2715.3,919.783L2758.93,995.36Z" style="fill:rgb(204,204,204);fill-rule:nonzero;"/>
        <path d="M2243.66,993.681L2285.35,921.461L2243.66,849.241L2160.27,849.241L2118.57,921.461L2160.27,993.681L2243.66,993.681ZM2289.23,921.461L2245.6,997.037L2158.33,997.037L2114.69,921.461L2158.33,845.884L2245.6,845.884L2289.23,921.461Z" style="fill:rgb(204,204,204);fill-rule:nonzero;"/>
        <path d="M2755.64,698.086L2797.34,625.866L2755.64,553.645L2672.25,553.645L2630.55,625.866L2672.25,698.086L2755.64,698.086ZM2801.21,625.866L2757.58,701.443L2670.31,701.443L2626.68,625.866L2670.31,550.289L2757.58,550.289L2758.07,551.127L2801.21,625.866Z" style="fill:rgb(204,204,204);fill-rule:nonzero;"/>
        <path d="M2542.3,1363.1L2583.99,1290.87L2542.3,1218.65L2458.91,1218.65L2417.21,1290.87L2458.91,1363.1L2542.3,1363.1ZM2587.87,1290.87L2544.24,1366.45L2456.97,1366.45L2413.33,1290.87L2456.97,1215.3L2544.24,1215.3L2544.72,1216.14L2587.87,1290.87Z" style="fill:rgb(204,204,204);fill-rule:nonzero;"/>
        <path d="M2456.92,1511.1L2498.61,1438.88L2456.92,1366.66L2373.53,1366.66L2331.83,1438.88L2373.53,1511.1L2456.92,1511.1ZM2502.49,1438.88L2458.86,1514.46L2371.59,1514.46L2327.95,1438.88L2371.59,1363.31L2458.86,1363.31L2459.34,1364.14L2502.49,1438.88Z" style="fill:rgb(204,204,204);fill-rule:nonzero;"/>
        <path d="M2798.7,1510.88L2840.4,1438.66L2798.7,1366.44L2715.31,1366.44L2673.61,1438.66L2715.31,1510.88L2798.7,1510.88ZM2844.27,1438.66L2800.64,1514.24L2713.37,1514.24L2669.74,1438.66L2713.37,1363.08L2800.64,1363.08L2801.12,1363.92L2844.27,1438.66Z" style="fill:rgb(204,204,204);fill-rule:nonzero;"/>
        <path d="M2626.14,1363.09L2667.83,1290.87L2626.14,1218.64L2542.74,1218.64L2501.05,1290.87L2542.74,1363.09L2626.14,1363.09ZM2671.71,1290.87L2628.07,1366.44L2540.81,1366.44L2497.17,1290.87L2540.81,1215.29L2628.07,1215.29L2628.56,1216.13L2671.71,1290.87Z" style="fill:rgb(204,204,204);fill-rule:nonzero;"/>
        <path d="M2414.36,106.896L2456.06,34.676L2414.36,-37.545L2330.97,-37.545L2289.27,34.676L2330.97,106.896L2414.36,106.896ZM2459.93,34.676L2416.3,110.253L2329.03,110.253L2285.39,34.676L2329.03,-40.901L2416.3,-40.901L2459.93,34.676Z" style="fill:rgb(128,128,128);fill-rule:nonzero;"/>
        <path d="M2755.65,106.909L2797.35,34.689L2755.65,-37.531L2672.26,-37.531L2630.57,34.689L2672.26,106.909L2755.65,106.909ZM2801.23,34.689L2757.59,110.266L2670.32,110.266L2626.69,34.689L2670.32,-40.888L2757.59,-40.888L2801.23,34.689Z" style="fill:rgb(128,128,128);fill-rule:nonzero;"/>
        <path d="M2670.31,254.694L2712.01,182.473L2670.31,110.253L2586.92,110.253L2545.22,182.473L2586.92,254.694L2670.31,254.694ZM2715.88,182.473L2672.25,258.05L2584.98,258.05L2541.34,182.473L2584.98,106.896L2672.25,106.896L2715.88,182.473Z" style="fill:rgb(128,128,128);fill-rule:nonzero;"/>
        <path d="M2414.33,698.006L2456.03,625.784L2414.33,553.565L2330.94,553.565L2289.24,625.784L2330.94,698.006L2414.33,698.006ZM2459.9,625.784L2416.27,701.363L2329,701.363L2285.36,625.784L2329,550.207L2416.27,550.207L2459.9,625.784Z" style="fill:rgb(128,128,128);fill-rule:nonzero;"/>
        <path d="M2499.66,845.804L2541.36,773.583L2499.66,701.363L2416.27,701.363L2374.57,773.583L2416.27,845.804L2499.66,845.804ZM2545.23,773.583L2501.6,849.159L2414.33,849.159L2370.69,773.583L2414.33,698.006L2501.6,698.006L2502.08,698.845L2545.23,773.583Z" style="fill:rgb(128,128,128);fill-rule:nonzero;"/>
        <path d="M2584.99,993.601L2626.69,921.38L2584.99,849.159L2501.6,849.159L2459.9,921.38L2501.6,993.601L2584.99,993.601ZM2630.56,921.38L2586.93,996.957L2499.66,996.957L2499.17,996.118L2456.02,921.38L2499.66,845.804L2586.93,845.804L2587.41,846.643L2630.56,921.38Z" style="fill:rgb(128,128,128);fill-rule:nonzero;"/>
        <path d="M2329,550.207L2370.69,477.987L2329,405.766L2245.6,405.766L2203.91,477.987L2245.6,550.207L2329,550.207ZM2374.57,477.987L2330.94,553.565L2243.67,553.565L2200.03,477.987L2243.67,402.41L2330.94,402.41L2374.57,477.987Z" style="fill:rgb(128,128,128);fill-rule:nonzero;"/>
        <path d="M2670.32,845.804L2712.02,773.583L2670.32,701.363L2586.93,701.363L2545.23,773.583L2586.93,845.804L2670.32,845.804ZM2715.89,773.583L2672.26,849.159L2584.99,849.159L2584.5,848.321L2541.35,773.583L2584.99,698.006L2672.26,698.006L2672.74,698.845L2715.89,773.583Z" style="fill:rgb(128,128,128);fill-rule:nonzero;"/>
        <path d="M2670.32,698.006L2712.02,625.784L2670.32,553.565L2586.93,553.565L2545.23,625.784L2586.93,698.006L2670.32,698.006ZM2715.89,625.784L2672.26,701.363L2584.99,701.363L2584.5,700.524L2541.35,625.784L2584.99,550.207L2672.26,550.207L2672.74,551.047L2715.89,625.784Z" style="fill:rgb(128,128,128);fill-rule:nonzero;"/>
        <path d="M2798.7,771.905L2840.4,699.684L2798.7,627.463L2715.31,627.463L2673.61,699.684L2715.31,771.905L2798.7,771.905ZM2844.27,699.684L2800.64,775.261L2713.37,775.261L2712.88,774.422L2669.73,699.684L2713.37,624.107L2800.64,624.107L2801.12,624.946L2844.27,699.684Z" style="fill:rgb(128,128,128);fill-rule:nonzero;"/>
        <path d="M2371.34,919.702L2413.03,847.482L2371.34,775.261L2287.94,775.261L2246.25,847.482L2287.94,919.702L2371.34,919.702ZM2416.91,847.482L2373.27,923.059L2286,923.059L2242.37,847.482L2286,771.905L2373.27,771.905L2416.91,847.482Z" style="fill:rgb(128,128,128);fill-rule:nonzero;"/>
        <path d="M2499.66,550.207L2541.36,477.987L2499.66,405.766L2416.27,405.766L2374.57,477.987L2416.27,550.207L2499.66,550.207ZM2545.23,477.987L2501.6,553.565L2414.33,553.565L2370.69,477.987L2414.33,402.41L2501.6,402.41L2502.08,403.249L2545.23,477.987Z" style="fill:rgb(128,128,128);fill-rule:nonzero;"/>
        <path d="M2584.99,402.41L2626.69,330.19L2584.99,257.969L2501.6,257.969L2459.9,330.19L2501.6,402.41L2584.99,402.41ZM2630.56,330.19L2586.93,405.766L2499.66,405.766L2499.17,404.928L2456.02,330.19L2499.66,254.613L2586.93,254.613L2587.41,255.452L2630.56,330.19Z" style="fill:rgb(128,128,128);fill-rule:nonzero;"/>
        <path d="M2670.32,550.207L2712.02,477.987L2670.32,405.766L2586.93,405.766L2545.23,477.987L2586.93,550.207L2670.32,550.207ZM2715.89,477.987L2672.26,553.565L2584.99,553.565L2584.51,552.725L2541.35,477.987L2584.99,402.41L2672.26,402.41L2672.74,403.249L2715.89,477.987Z" style="fill:rgb(128,128,128);fill-rule:nonzero;"/>
        <path d="M2884.03,919.702L2925.73,847.482L2884.03,775.261L2800.64,775.261L2758.94,847.482L2800.64,919.702L2884.03,919.702ZM2929.6,847.482L2885.97,923.059L2798.7,923.059L2798.22,922.219L2755.07,847.482L2798.7,771.905L2885.97,771.905L2886.45,772.743L2929.6,847.482Z" style="fill:rgb(128,128,128);fill-rule:nonzero;"/>
        <path d="M2670.32,1141.4L2712.02,1069.18L2670.32,996.957L2586.93,996.957L2545.23,1069.18L2586.93,1141.4L2670.32,1141.4ZM2715.89,1069.18L2672.26,1144.76L2584.99,1144.76L2584.51,1143.92L2541.35,1069.18L2584.99,993.601L2672.26,993.601L2672.74,994.44L2715.89,1069.18Z" style="fill:rgb(128,128,128);fill-rule:nonzero;"/>
        <path d="M2499.66,1141.4L2541.36,1069.18L2499.66,996.957L2416.27,996.957L2374.57,1069.18L2416.27,1141.4L2499.66,1141.4ZM2545.23,1069.18L2501.6,1144.76L2414.33,1144.76L2370.69,1069.18L2414.33,993.601L2501.6,993.601L2502.08,994.44L2545.23,1069.18Z" style="fill:rgb(128,128,128);fill-rule:nonzero;"/>
        <path d="M2286,1067.5L2327.7,995.28L2286,923.059L2202.61,923.059L2160.92,995.28L2202.61,1067.5L2286,1067.5ZM2331.58,995.28L2287.94,1070.86L2200.67,1070.86L2157.04,995.28L2200.67,919.702L2287.94,919.702L2331.58,995.28Z" style="fill:rgb(128,128,128);fill-rule:nonzero;"/>
        <path d="M2286,771.905L2327.7,699.684L2286,627.463L2202.61,627.463L2160.92,699.684L2202.61,771.905L2286,771.905ZM2331.58,699.684L2287.94,775.261L2200.67,775.261L2157.04,699.684L2200.67,624.107L2287.94,624.107L2331.58,699.684Z" style="fill:rgb(128,128,128);fill-rule:nonzero;"/>
        <path d="M2243.67,402.41L2285.36,330.19L2243.67,257.969L2160.27,257.969L2118.58,330.19L2160.27,402.41L2243.67,402.41ZM2289.24,330.19L2245.6,405.766L2158.34,405.766L2114.7,330.19L2158.34,254.613L2245.6,254.613L2289.24,330.19Z" style="fill:rgb(128,128,128);fill-rule:nonzero;"/>
        <path d="M2200.67,624.107L2242.37,551.886L2200.67,479.665L2117.28,479.665L2075.58,551.886L2117.28,624.107L2200.67,624.107ZM2246.25,551.886L2202.61,627.463L2115.34,627.463L2071.71,551.886L2115.34,476.309L2202.61,476.309L2246.25,551.886Z" style="fill:rgb(128,128,128);fill-rule:nonzero;"/>
        <path d="M2414.33,1289.2L2456.03,1216.98L2414.33,1144.76L2330.94,1144.76L2289.24,1216.98L2330.94,1289.2L2414.33,1289.2ZM2459.9,1216.98L2416.27,1292.55L2329,1292.55L2285.36,1216.98L2329,1141.4L2416.27,1141.4L2459.9,1216.98Z" style="fill:rgb(128,128,128);fill-rule:nonzero;"/>
        <path d="M2840.98,550.207L2882.68,477.987L2840.98,405.766L2757.59,405.766L2715.89,477.987L2757.59,550.207L2840.98,550.207ZM2886.56,477.987L2842.92,553.565L2755.65,553.565L2755.17,552.725L2712.02,477.987L2755.65,402.41L2842.92,402.41L2843.41,403.249L2886.56,477.987Z" style="fill:rgb(128,128,128);fill-rule:nonzero;"/>
        <path d="M2798.7,1215.3L2840.4,1143.08L2798.7,1070.86L2715.31,1070.86L2673.61,1143.08L2715.31,1215.3L2798.7,1215.3ZM2844.27,1143.08L2800.64,1218.65L2713.37,1218.65L2712.89,1217.81L2669.73,1143.08L2713.37,1067.5L2800.64,1067.5L2801.12,1068.34L2844.27,1143.08Z" style="fill:rgb(128,128,128);fill-rule:nonzero;"/>
        <path d="M2713.37,1363.1L2755.07,1290.87L2713.37,1218.65L2629.98,1218.65L2588.28,1290.87L2629.98,1363.1L2713.37,1363.1ZM2758.94,1290.87L2715.31,1366.45L2628.04,1366.45L2627.56,1365.61L2584.4,1290.87L2628.04,1215.3L2715.31,1215.3L2715.79,1216.14L2758.94,1290.87Z" style="fill:rgb(128,128,128);fill-rule:nonzero;"/>
        <path d="M2243.67,1289.2L2285.36,1216.98L2243.67,1144.76L2160.28,1144.76L2118.58,1216.98L2160.28,1289.2L2243.67,1289.2ZM2289.24,1216.98L2245.6,1292.55L2158.34,1292.55L2114.7,1216.98L2158.34,1141.4L2245.6,1141.4L2289.24,1216.98Z" style="fill:rgb(128,128,128);fill-rule:nonzero;"/>
        <path d="M2755.65,993.601L2797.35,921.38L2755.65,849.159L2672.26,849.159L2630.56,921.38L2672.26,993.601L2755.65,993.601ZM2801.22,921.38L2757.59,996.957L2670.32,996.957L2669.84,996.118L2626.69,921.38L2670.32,845.804L2757.59,845.804L2758.07,846.643L2801.22,921.38Z" style="fill:rgb(128,128,128);fill-rule:nonzero;"/>
    </g>
</svg>
