<svg xmlns="http://www.w3.org/2000/svg" version="1.1" xmlns:xlink="http://www.w3.org/1999/xlink" width="512" height="512" x="0" y="0" viewBox="0 0 64 64" style="enable-background:new 0 0 512 512" xml:space="preserve"><g><path fill="#ffffff" d="M57.3 64c-1.15 0-2.29-.45-3.14-1.35L32 39.23 9.85 62.65a4.317 4.317 0 0 1-6.11.17 4.33 4.33 0 0 1-.18-6.12l25.3-26.74c.82-.86 1.95-1.35 3.14-1.35 1.19 0 2.32.49 3.14 1.35l25.3 26.74a4.317 4.317 0 0 1-.17 6.11c-.84.8-1.91 1.19-2.97 1.19z" opacity="1" data-original="#010101"></path><path fill="#ffffff" d="M57.3 35.39c-1.15 0-2.29-.45-3.14-1.35L32 10.62 9.85 34.04a4.317 4.317 0 0 1-6.11.17 4.33 4.33 0 0 1-.18-6.12l25.3-26.74C29.68.49 30.81 0 32 0c1.19 0 2.32.49 3.14 1.35l25.3 26.74a4.317 4.317 0 0 1-.17 6.11c-.84.8-1.91 1.19-2.97 1.19z" opacity="1" data-original="#010101"></path></g></svg>