<?xml version="1.0" encoding="utf-8"?>
<!-- Generator: Adobe Adobe Illustrator 24.2.0, SVG Export Plug-In . SVG Version: 6.00 Build 0)  -->
<svg version="1.1" xmlns="http://www.w3.org/2000/svg" xmlns:xlink="http://www.w3.org/1999/xlink" x="0px" y="0px" width="2000px"
	 height="440px" viewBox="0 0 2000 440" style="enable-background:new 0 0 2000 440;" xml:space="preserve">
<style type="text/css">
	.st0{fill:#FFFFFF;}
	.st1{fill:#D9D9D9;}
</style>
<g id="XMLID_743_">
	<rect id="XMLID_744_" y="-770" class="st0" width="2000" height="1210"/>
</g>
<g id="XMLID_745_">
	<g id="XMLID_754_">
		<path id="XMLID_746_" class="st1" d="M1258.98,109.27h205.11c1.3,6.24,6.82,10.92,13.44,10.92c7.58,0,13.73-6.15,13.73-13.73
			c0-7.58-6.15-13.73-13.73-13.73c-6.62,0-12.15,4.69-13.44,10.92h-207.44l-56.47,56.47H0v5.62h1202.51L1258.98,109.27z"/>
		<path id="XMLID_747_" class="st1" d="M1083.95,227.16h93.72l15.39,15.39h246.52l8.38-8.38c5.33,3.49,12.55,2.9,17.23-1.78
			c5.36-5.36,5.36-14.06,0-19.42c-5.36-5.36-14.06-5.36-19.42,0c-4.68,4.68-5.27,11.9-1.78,17.23l-6.74,6.74h-241.87l-15.39-15.39
			h-93.72l-28.77-28.77H0v5.62h1055.18L1083.95,227.16z"/>
		<path id="XMLID_748_" class="st1" d="M1426.93,300.53c-6.62,0-12.14,4.69-13.44,10.92h-94.67l-20.83-20.83h-84.28l-23.68,23.68
			h-138.31l-77.37-77.37H0v5.62h972.02l77.37,77.37h142.97l23.68-23.68h79.62l20.83,20.83h97c1.3,6.24,6.82,10.92,13.44,10.92
			c7.58,0,13.73-6.15,13.73-13.73C1440.67,306.68,1434.52,300.53,1426.93,300.53z"/>
		<path id="XMLID_749_" class="st1" d="M1477.53,259.09c-6.62,0-12.15,4.69-13.44,10.92H1256.4l-15.72-15.72h-116.11l-22.19,22.19
			h-37.57l-66.86-66.86H0v5.62h995.62l66.86,66.86h84.68c1.3,6.24,6.82,10.92,13.44,10.92c7.58,0,13.73-6.15,13.73-13.73
			c0-7.58-6.15-13.73-13.73-13.73c-6.62,0-12.14,4.69-13.44,10.92h-36.84l16.58-16.58h111.45l15.72,15.72h210.02
			c1.3,6.24,6.82,10.92,13.44,10.92c7.58,0,13.73-6.15,13.73-13.73S1485.11,259.09,1477.53,259.09z"/>
		<path id="XMLID_750_" class="st1" d="M943.01,295.94h16.48c1.3,6.24,6.82,10.92,13.44,10.92c7.58,0,13.73-6.15,13.73-13.73
			s-6.15-13.73-13.73-13.73c-6.62,0-12.14,4.69-13.44,10.92h-14.16l-24.93-24.93H0v5.62h918.08L943.01,295.94z"/>
		<path id="XMLID_751_" class="st1" d="M1218.41,335.49c-4.68,4.68-5.27,11.9-1.78,17.23l-0.75,0.75h-171.86l-30.34-30.34h-75.29
			l-26.97-26.97H0v5.62h909.09l26.97,26.97h75.29l30.34,30.34h176.51l2.4-2.4c5.32,3.49,12.55,2.9,17.23-1.78
			c5.36-5.36,5.36-14.06,0-19.42C1232.47,330.13,1223.77,330.13,1218.41,335.49z"/>
		<path id="XMLID_752_" class="st1" d="M731.9,346.76c-6.62,0-12.15,4.69-13.44,10.92H559.47l-32.87-32.87H0v5.62h524.27
			l32.87,32.87h161.32c1.3,6.24,6.82,10.92,13.44,10.92c7.58,0,13.73-6.15,13.73-13.73C745.63,352.91,739.48,346.76,731.9,346.76z"
			/>
		<path id="XMLID_753_" class="st1" d="M312.32,102.32h93.24c1.3,6.24,6.82,10.92,13.44,10.92c7.58,0,13.73-6.15,13.73-13.73
			c0-7.58-6.15-13.73-13.73-13.73c-6.62,0-12.14,4.69-13.44,10.92h-95.56l-35.19,35.19H0v5.62h277.14L312.32,102.32z"/>
	</g>
</g>
</svg>
