<?xml version="1.0" encoding="utf-8"?>
<!-- Generator: Adobe Adobe Illustrator 24.2.0, SVG Export Plug-In . SVG Version: 6.00 Build 0)  -->
<svg version="1.1" id="XMLID_1_" xmlns="http://www.w3.org/2000/svg" xmlns:xlink="http://www.w3.org/1999/xlink" x="0px" y="0px"
	 width="2963px" height="860px" viewBox="0 0 2963 860" style="enable-background:new 0 0 2963 860;" xml:space="preserve">
<style type="text/css">
	.st0{fill:#FFFFFF;}
	.st1{opacity:0.5;}
	.st2{fill:#D9D9D9;}
	.st3{opacity:0.6;}
	.st4{opacity:0.1;}
	.st5{opacity:0.3;}
	.st6{opacity:0.4;}
	.st7{opacity:0.8;}
	.st8{opacity:0.7;}
	.st9{display:none;}
	.st10{display:inline;}
	.st11{fill:#4A7282;}
</style>
<g>
	<rect y="-360" class="st0" width="2962.26" height="1519.11"/>
	<g class="st1">
		<g>
			<path class="st2" d="M2361.59,847.36c-10.53,0-20.97-0.4-31.24-1.2c-37.61-2.93-76.14-11.21-114.54-24.61
				c-18.86-6.58-38.19-14.57-57.44-23.74c-18.62-8.87-37.78-19.12-56.96-30.49c-35.59-21.1-71.79-46.18-110.69-76.69
				c-32.28-25.33-66.11-54.17-103.42-88.18c-35.76-32.6-68.28-64.03-92.62-87.77c-33.06-32.26-62.41-61.33-88.3-86.98
				c-19.08-18.9-35.91-35.58-50.26-49.58c-32.86-32.08-52.34-50.4-52.53-50.58l2.53-2.69c0.19,0.18,19.7,18.52,52.58,50.63
				c14.35,14.01,31.19,30.69,50.27,49.6c25.89,25.64,55.23,54.71,88.28,86.96c24.31,23.72,56.8,55.12,92.53,87.68
				c37.24,33.95,71.01,62.74,103.22,88.01c38.77,30.41,74.84,55.41,110.29,76.42c19.08,11.31,38.15,21.51,56.66,30.33
				c19.14,9.11,38.34,17.05,57.07,23.59c38.09,13.29,76.31,21.51,113.61,24.41c35.88,2.79,73.92,0.63,110-6.25
				c33.67-6.43,68.3-17.23,102.94-32.11c30.32-13.03,60.51-28.96,92.33-48.7c25.46-15.8,51-33.45,78.1-53.97
				c19.85-15.03,38.99-30.38,60.24-48.3c21.32-17.99,36.62-31.52,45.7-39.72l2.47,2.74c-9.1,8.21-24.43,21.78-45.79,39.8
				c-21.3,17.97-40.49,33.35-60.4,48.42c-27.18,20.58-52.82,38.3-78.38,54.16c-31.97,19.84-62.33,35.85-92.82,48.95
				c-34.88,14.99-69.77,25.87-103.7,32.35C2415.26,844.83,2388.17,847.36,2361.59,847.36z"/>
		</g>
		<g>
			<path class="st2" d="M2827.07,622.3c4.04-3.53,4.45-9.67,0.92-13.71c-3.53-4.04-9.67-4.45-13.71-0.92
				c-4.04,3.53-4.45,9.67-0.92,13.71C2816.89,625.42,2823.03,625.83,2827.07,622.3z"/>
		</g>
	</g>
	<g class="st3">
		<g>
			<path class="st2" d="M2112.94,847.4c-23.95,0-48.15-2.1-72.11-6.27c-30.93-5.39-62.66-14.43-94.31-26.87
				c-32.62-12.83-66.51-29.83-100.74-50.51c-33.48-20.23-67.47-43.95-103.91-72.48c-32.41-25.38-66.37-54.32-103.83-88.45
				c-29.76-27.12-60.76-56.56-100.51-95.46c-24.05-23.53-47.33-46.56-69.78-68.76c-38.55-38.12-74.96-74.13-108.32-105.84
				c-25.34-24.09-49.26-46.12-71.09-65.49c-18.88-16.75-37.31-32.51-54.79-46.84c-29.51-24.19-47.53-37.33-47.7-37.46l2.17-2.99
				c0.18,0.13,18.27,13.32,47.87,37.59c17.52,14.36,35.99,30.15,54.9,46.93c21.86,19.4,45.81,41.46,71.19,65.58
				c33.39,31.74,69.81,67.76,108.38,105.89c22.44,22.19,45.72,45.22,69.77,68.74c39.72,38.87,70.69,68.28,100.42,95.37
				c37.39,34.07,71.28,62.94,103.62,88.27c36.32,28.45,70.19,52.07,103.54,72.23c34.05,20.58,67.76,37.48,100.19,50.24
				c31.42,12.35,62.9,21.33,93.59,26.67c27.87,4.85,56.06,6.88,83.8,6.03c41.8-1.29,82.84-8.8,125.47-22.95
				c18.14-6.03,31.35-11.29,39.24-14.65l1.45,3.4c-7.95,3.38-21.26,8.69-39.52,14.75c-42.96,14.26-84.35,21.83-126.51,23.14
				C2121.24,847.34,2117.09,847.4,2112.94,847.4z"/>
		</g>
		<g>
			<path class="st2" d="M2294.1,816.67c4.92-2.15,7.16-7.88,5-12.8c-2.15-4.91-7.89-7.16-12.8-5c-4.92,2.15-7.16,7.88-5,12.8
				C2283.45,816.58,2289.18,818.82,2294.1,816.67z"/>
		</g>
	</g>
	<g class="st4">
		<g>
			<path class="st2" d="M2216.55,847.4c-31.96,0-65.61-3.94-97.68-11.45c-33.49-7.86-68.01-20.03-102.59-36.18
				c-32.44-15.16-64.91-33.62-99.26-56.45c-29.86-19.85-60.2-42.37-92.74-68.84c-26.22-21.34-53.39-44.85-83.04-71.88
				c-49.97-45.55-90.58-85.59-120.23-114.84l-4-3.94c-30.03-29.61-47.11-46.59-47.11-46.59l2.6-2.62c0,0,17.07,16.98,47.1,46.58
				l4,3.94c29.63,29.22,70.21,69.24,120.13,114.74c29.6,26.98,56.72,50.45,82.89,71.74c32.45,26.4,62.69,48.85,92.46,68.63
				c34.2,22.72,66.51,41.1,98.78,56.18c34.35,16.05,68.63,28.13,101.87,35.93c33.45,7.84,68.65,11.75,101.79,11.32
				c32.53-0.43,65.7-4.85,98.6-13.15c30.16-7.61,61.21-18.76,92.28-33.13c27.2-12.59,54.27-27.44,82.76-45.41
				c22.88-14.44,45.78-30.32,69.99-48.56c17.61-13.26,35.27-27.28,53.99-42.85c18.64-15.51,32.15-27.26,40.19-34.38l2.45,2.77
				c-8.07,7.14-21.61,18.92-40.28,34.45c-18.76,15.61-36.47,29.66-54.13,42.96c-24.3,18.3-47.28,34.23-70.24,48.73
				c-28.62,18.06-55.82,32.98-83.18,45.64c-31.28,14.47-62.54,25.69-92.92,33.36c-33.18,8.37-66.64,12.83-99.45,13.26
				C2219.89,847.39,2218.22,847.4,2216.55,847.4z"/>
		</g>
		<g>
			<path class="st2" d="M2666.37,635.14c4.07-3.5,4.52-9.64,1.02-13.71c-3.5-4.07-9.64-4.52-13.7-1.02
				c-4.07,3.5-4.52,9.64-1.02,13.7C2656.17,638.19,2662.31,638.65,2666.37,635.14z"/>
		</g>
	</g>
	<g class="st5">
		<g>
			<path class="st2" d="M2314.58,847.4c-7.68,0-15.34-0.21-22.97-0.64c-33.86-1.92-68.46-8.15-102.85-18.52
				c-33.43-10.1-68-24.52-102.75-42.87c-32.33-17.08-64.85-37.4-99.41-62.12c-29.68-21.23-60.06-45.15-92.89-73.12
				c-26.28-22.4-52.71-46.13-83.18-74.67c-46.44-43.52-85.54-82.29-114.1-110.61l-10.34-10.25c-30.03-29.73-47.19-46.67-47.19-46.67
				l2.59-2.63c0,0,17.16,16.95,47.19,46.68l10.34,10.25c28.54,28.3,67.63,67.06,114.03,110.54c30.42,28.5,56.81,52.2,83.05,74.56
				c32.75,27.9,63.05,51.76,92.64,72.93c34.42,24.62,66.8,44.86,98.99,61.86c34.54,18.24,68.89,32.57,102.09,42.6
				c34.11,10.29,68.42,16.47,101.99,18.37c32.22,1.82,66.37-0.39,98.76-6.37c30.29-5.6,61.39-14.75,92.41-27.18
				c27.34-10.96,54.45-24.26,82.88-40.65c23.01-13.27,45.94-28.03,70.1-45.11c17.72-12.53,35.41-25.81,54.08-40.62
				c18.65-14.79,32.14-26.06,40.16-32.9l2.4,2.81c-8.05,6.86-21.57,18.16-40.26,32.98c-18.72,14.85-36.47,28.18-54.24,40.74
				c-24.25,17.15-47.28,31.96-70.39,45.3c-28.58,16.48-55.85,29.86-83.35,40.88c-31.26,12.52-62.58,21.74-93.12,27.38
				C2365.78,845.03,2340.08,847.4,2314.58,847.4z"/>
		</g>
		<g>
			<path class="st2" d="M2737.08,659.29c4.14-3.42,4.72-9.54,1.3-13.68c-3.42-4.14-9.54-4.72-13.68-1.31
				c-4.14,3.42-4.72,9.54-1.31,13.68C2726.82,662.12,2732.94,662.71,2737.08,659.29z"/>
		</g>
	</g>
	<g class="st5">
		<g>
			<path class="st2" d="M1857.21,837.34c-6.77-1.49-17.83-4.15-32.05-8.36c-15.54-4.6-31.41-10.16-47.16-16.51
				c-20.01-8.07-40.58-17.74-61.13-28.72c-23.44-12.53-47.76-27.25-72.28-43.77c-25.75-17.35-52.88-37.45-80.62-59.74
				c-27.2-21.86-55.38-46.06-86.17-74c-26.79-24.31-55.04-50.97-88.92-83.9c-27.21-26.45-54.38-53.35-80.66-79.37
				c-32.64-32.32-63.48-62.85-94.29-92.5c-29.62-28.5-55.93-53.04-80.45-75.03c-25.12-22.53-49.36-43.26-72.05-61.6
				c-20.82-16.83-41.3-32.44-60.87-46.41c-15.85-11.31-31.64-21.92-46.91-31.54c-25.17-15.84-40.67-24-40.82-24.08l1.71-3.27
				c0.15,0.08,15.76,8.29,41.07,24.22c15.33,9.65,31.17,20.3,47.08,31.66c19.63,14.01,40.17,29.67,61.04,46.54
				c22.74,18.38,47.03,39.15,72.19,61.73c24.55,22.02,50.9,46.59,80.55,75.12c30.83,29.66,61.67,60.2,94.33,92.53
				c26.27,26.01,53.44,52.91,80.64,79.35c33.84,32.9,62.07,59.53,88.83,83.82c30.73,27.88,58.86,52.04,86,73.85
				c27.66,22.23,54.7,42.27,80.37,59.56c24.42,16.45,48.64,31.11,71.96,43.58c20.44,10.92,40.89,20.53,60.78,28.55
				c15.65,6.31,31.4,11.83,46.83,16.4c14.11,4.18,25.08,6.82,31.79,8.3L1857.21,837.34z"/>
		</g>
		<g>
			<path class="st2" d="M1855.16,844.92c5.26,1.08,10.39-2.31,11.47-7.56c1.08-5.26-2.31-10.39-7.56-11.47
				c-5.26-1.08-10.39,2.31-11.47,7.56C1846.52,838.7,1849.9,843.84,1855.16,844.92z"/>
		</g>
	</g>
	<g class="st3">
		<g>
			<path class="st2" d="M2004.5,847.41c-0.37,0-0.74,0-1.1,0c-33.61-0.1-67.88-4.42-101.85-12.84
				c-34.01-8.44-69.09-21.33-104.26-38.32c-34.45-16.65-69.07-37.05-105.82-62.38c-33.87-23.35-68.72-50.34-106.55-82.51
				c-32.64-27.75-66.47-58.44-106.48-96.56c-34.42-32.81-68.19-66.14-105.6-103.18l-5.68-5.62c-33.74-33.41-65.6-64.97-98.21-96.33
				c-38.33-36.86-70.53-66.56-101.34-93.46c-34.85-30.43-66.89-56.33-97.96-79.19c-32.16-23.66-63.7-44.24-93.73-61.18
				c-30-16.91-59.83-30.94-88.66-41.7c-27.74-10.35-55.59-18.05-82.78-22.91c-59.83-10.67-111.73-6.03-144.74-0.26
				c-37,6.48-73.53,17.68-111.67,34.24c-31.31,13.61-54.89,26.8-71.94,36.77c-16.62,9.73-25.36,15.46-25.44,15.52l-2.03-3.08
				c0.09-0.06,8.89-5.84,25.61-15.62c17.14-10.03,40.84-23.29,72.33-36.97C585,65.13,621.8,53.84,659.1,47.32
				c33.3-5.82,85.67-10.49,146.03,0.26c27.41,4.89,55.47,12.66,83.42,23.09c29.01,10.83,59.02,24.94,89.19,41.95
				c30.16,17.01,61.82,37.67,94.11,61.42c31.15,22.92,63.27,48.89,98.2,79.38c30.86,26.94,63.1,56.68,101.47,93.58
				c32.63,31.38,64.5,62.94,98.25,96.36l5.68,5.62c37.39,37.03,71.14,70.35,105.55,103.13c39.96,38.08,73.74,68.71,106.33,96.42
				c37.73,32.08,72.49,58.99,106.25,82.28c36.59,25.22,71.05,45.54,105.33,62.1c34.94,16.88,69.78,29.68,103.55,38.06
				c33.68,8.35,67.65,12.63,100.97,12.74c32.26,0.17,65.1-3.74,97.65-11.37c30.6-7.18,62.09-17.99,93.58-32.14
				c29.13-13.09,58.14-28.82,88.7-48.08c26.94-16.99,54.08-36.1,82.95-58.42c24.46-18.9,49.43-39.54,76.35-63.1
				c21.62-18.92,44.16-39.44,68.9-62.72c41.89-39.43,78.61-75.76,108.11-104.96l3.95-3.9c45.48-45.01,76.59-75.54,91.08-89.74
				l2.58,2.64c-14.49,14.19-45.59,44.72-91.07,89.72l-3.95,3.9c-29.52,29.21-66.25,65.57-108.18,105.03
				c-24.78,23.31-47.35,43.86-69,62.81c-26.97,23.61-52.01,44.3-76.52,63.25c-28.97,22.39-56.2,41.56-83.24,58.62
				c-30.71,19.36-59.87,35.17-89.15,48.33c-31.71,14.24-63.42,25.13-94.25,32.37C2069.44,843.55,2036.67,847.41,2004.5,847.41z"/>
		</g>
		<g>
			<path class="st2" d="M2722.45,377.9c3.82-3.76,3.87-9.92,0.11-13.74c-3.77-3.82-9.92-3.87-13.74-0.11
				c-3.82,3.76-3.87,9.92-0.11,13.74C2712.47,381.61,2718.63,381.66,2722.45,377.9z"/>
		</g>
	</g>
	<g class="st6">
		<g>
			<path class="st2" d="M2058.88,847.3c-18.68,0-37.29-1.22-55.44-3.68c-21.36-2.89-43.14-7.52-64.73-13.77
				c-21.09-6.1-42.68-13.92-64.19-23.26c-20.63-8.96-41.87-19.62-63.13-31.67c-20.01-11.35-40.73-24.32-61.58-38.55
				c-19.49-13.31-38.96-27.59-59.52-43.63c-18.49-14.43-37.13-29.72-56.97-46.75c-41.95-36-79.62-71.52-104.3-95.11
				c-46.78-44.71-87.5-85.17-120.21-117.68c-13.12-13.04-25.07-24.92-35.81-35.47c-37.03-36.41-58.94-57.24-59.15-57.45l2.54-2.68
				c0.22,0.21,22.14,21.06,59.2,57.49c10.74,10.56,22.7,22.45,35.82,35.49c32.71,32.5,73.41,72.95,120.16,117.63
				c24.65,23.56,62.27,59.03,104.16,94.98c19.8,16.99,38.39,32.25,56.84,46.64c20.5,15.99,39.9,30.22,59.33,43.49
				c20.76,14.18,41.39,27.09,61.31,38.39c21.15,11.99,42.27,22.58,62.78,31.49c21.36,9.28,42.81,17.05,63.74,23.1
				c21.43,6.19,43.03,10.79,64.2,13.65c41.77,5.65,85.99,4.72,127.87-2.69c20.66-3.66,41.76-8.98,62.71-15.8
				c20.09-6.55,40.7-14.69,61.24-24.21c19.37-8.97,39.31-19.45,59.27-31.16c18.73-10.98,37.31-22.88,56.79-36.36
				c33.12-22.93,67.17-49.32,104.08-80.68c27.67-23.5,55.63-48.62,88.02-79.04c26.53-24.93,49.21-46.97,67.89-65.25
				c25.58-25.03,43.63-42.9,52.63-51.84l2.6,2.62c-9,8.94-27.06,26.82-52.65,51.86c-18.69,18.29-41.38,40.36-67.94,65.3
				c-32.43,30.46-60.44,55.62-88.16,79.16c-37.01,31.44-71.15,57.9-104.37,80.9c-19.56,13.53-38.21,25.47-57.02,36.51
				c-20.06,11.76-40.11,22.3-59.58,31.32c-20.67,9.58-41.42,17.77-61.65,24.37c-21.11,6.87-42.38,12.23-63.21,15.92
				C2108.39,845.17,2083.57,847.3,2058.88,847.3z"/>
		</g>
		<g>
			<path class="st2" d="M2692.17,461.5c3.82-3.77,3.86-9.92,0.1-13.74c-3.77-3.82-9.92-3.86-13.74-0.09
				c-3.82,3.77-3.86,9.92-0.1,13.74C2682.19,465.22,2688.35,465.27,2692.17,461.5z"/>
		</g>
	</g>
	<g class="st6">
		<g>
			<path class="st2" d="M2165.99,847.38c-33,0-67.16-4.02-99.9-11.82c-21.44-5.11-43.37-12-65.19-20.48
				c-22.23-8.64-45.12-19.24-68.03-31.49c-22.8-12.2-46.45-26.49-70.28-42.47c-23.11-15.5-47.33-33.21-71.97-52.64
				c-23.43-18.47-47.33-38.51-73.08-61.25c-22.93-20.25-47.01-42.38-73.63-67.66c-39.45-37.46-78.72-76.36-116.7-113.98
				c-9.98-9.89-19.95-19.76-29.91-29.6c-45.32-44.76-93.88-92.16-141.92-135.53c-23.95-21.62-46.11-40.78-67.76-58.58
				c-22.24-18.29-44.07-35.19-64.86-50.23c-20.83-15.07-41.48-28.9-61.38-41.1c-19.32-11.84-38.61-22.57-57.32-31.87
				c-33.83-16.81-67.55-29.83-100.2-38.7c-25.77-6.99-51.74-11.64-77.19-13.82c-41.9-3.57-66.88-0.25-67.13-0.22l-0.5-3.66
				c0.25-0.03,25.59-3.42,67.95,0.19c25.67,2.19,51.86,6.88,77.84,13.93c32.89,8.93,66.83,22.04,100.88,38.96
				c18.81,9.35,38.19,20.12,57.61,32.03c19.97,12.25,40.7,26.13,61.61,41.25c20.85,15.09,42.74,32.04,65.04,50.37
				c21.69,17.84,43.9,37.03,67.89,58.69c48.1,43.42,96.69,90.85,142.04,135.64c9.96,9.84,19.93,19.72,29.91,29.6
				c37.97,37.61,77.23,76.49,116.65,113.93c26.59,25.25,50.64,47.35,73.53,67.57c25.7,22.7,49.55,42.69,72.93,61.12
				c24.57,19.37,48.71,37.03,71.74,52.47c23.73,15.91,47.28,30.14,69.97,42.28c22.78,12.18,45.53,22.72,67.62,31.31
				c21.66,8.42,43.43,15.26,64.71,20.33c38.93,9.27,79.88,13.16,118.44,11.24c32.97-1.65,66.66-7.43,100.11-17.17
				c25.65-7.47,50.92-17.07,77.25-29.34c29.91-13.94,50.16-25.56,59.56-31.24l1.91,3.16c-9.47,5.72-29.84,17.41-59.91,31.42
				c-26.51,12.35-51.95,22.01-77.78,29.53c-33.73,9.82-67.7,15.65-100.96,17.31C2179.1,847.22,2172.56,847.38,2165.99,847.38z"/>
		</g>
		<g>
			<path class="st2" d="M2427.79,775.5c4.59-2.78,6.06-8.75,3.28-13.34c-2.78-4.59-8.75-6.06-13.35-3.28
				c-4.59,2.78-6.06,8.75-3.28,13.34C2417.22,776.8,2423.19,778.27,2427.79,775.5z"/>
		</g>
	</g>
	<g class="st7">
		<g>
			<path class="st2" d="M2265.46,847.38c-8.84,0-17.64-0.29-26.42-0.86c-39.06-2.57-80.8-11.35-120.71-25.38
				c-21.57-7.59-43.72-17-65.84-27.98c-22.35-11.1-45.47-24.19-68.71-38.91c-22.88-14.5-46.77-31.14-71-49.46
				c-23.43-17.72-47.21-36.97-72.7-58.85c-23.22-19.93-47.37-41.62-73.84-66.33c-22.34-20.85-45.97-43.51-74.39-71.31
				c-21.54-21.07-42.91-42.23-64.21-63.32c-27.51-27.24-55.96-55.41-83.93-82.52c-26.79-25.95-50.53-48.4-72.58-68.62
				c-25.18-23.09-48.35-43.46-70.81-62.28c-23.57-19.74-46.6-37.92-68.45-54.03c-22.3-16.43-44.34-31.43-65.51-44.57
				c-20.92-12.98-41.78-24.65-61.99-34.66c-19.43-9.62-38.9-18.04-57.89-25.03C1113,60.97,1078,52.24,1045.27,48.04
				c-25.9-3.32-52.14-4.18-77.99-2.56c-43.19,2.72-67.61,9.79-67.85,9.86l-1.04-3.54c0.25-0.07,25.01-7.26,68.66-10
				c26.08-1.64,52.55-0.76,78.69,2.59c33.01,4.24,68.28,13.03,102.01,25.44c19.11,7.03,38.71,15.51,58.26,25.19
				c20.31,10.07,41.27,21.78,62.3,34.83c21.25,13.19,43.38,28.24,65.76,44.73c21.92,16.15,45.01,34.38,68.63,54.17
				c22.51,18.85,45.71,39.26,70.93,62.39c22.08,20.24,45.84,42.71,72.65,68.69c27.98,27.12,56.44,55.29,83.95,82.54
				c21.29,21.09,42.66,42.25,64.19,63.31c28.4,27.78,52.02,50.42,74.33,71.25c26.43,24.67,50.54,46.33,73.72,66.22
				c25.44,21.83,49.16,41.03,72.53,58.7c24.15,18.26,47.95,34.85,70.75,49.29c23.14,14.66,46.14,27.68,68.38,38.72
				c21.99,10.91,44,20.27,65.43,27.81c39.59,13.92,81,22.63,119.73,25.18c58.76,3.85,119.05-5.33,179.18-27.28
				c30.04-10.97,50.44-20.76,59.93-25.63l1.68,3.29c-9.56,4.9-30.12,14.77-60.35,25.81
				C2368.09,837.88,2316.31,847.38,2265.46,847.38z"/>
		</g>
		<g>
			<path class="st2" d="M2483.16,800.3c4.77-2.45,6.65-8.31,4.2-13.09c-2.45-4.77-8.31-6.65-13.09-4.2
				c-4.77,2.45-6.65,8.32-4.2,13.09C2472.53,800.88,2478.39,802.76,2483.16,800.3z"/>
		</g>
	</g>
	<g>
		<g>
			<path class="st2" d="M1430.79,822.6c-9.32-3.17-24.58-8.78-44.38-17.53c-19.94-8.82-40.47-19.22-61-30.91
				c-25.51-14.53-52.11-31.67-79.07-50.96c-29.45-21.07-60.9-45.85-93.49-73.64c-31.58-26.94-65.69-57.91-104.28-94.68
				c-35.6-33.93-70.84-68.83-108.15-105.77c-38.39-38.02-78.09-77.33-118.33-115.61c-42.72-40.63-80.32-74.44-114.96-103.38
				c-39.46-32.96-75.85-60.35-111.26-83.72c-35.5-23.42-70.48-42.94-103.94-58.01c-31.32-14.1-62.62-24.9-93.03-32.11
				c-26.19-6.2-52.62-9.96-78.57-11.17c-20.08-0.93-40.45-0.36-60.56,1.69c-33.56,3.43-52.5,8.69-52.69,8.74l-1-3.55
				c0.19-0.05,19.4-5.4,53.32-8.86c20.29-2.07,40.85-2.64,61.11-1.7c26.17,1.22,52.83,5.01,79.25,11.27
				c30.64,7.26,62.16,18.14,93.69,32.34c33.65,15.15,68.79,34.77,104.46,58.3c35.53,23.44,72.03,50.91,111.6,83.96
				c34.69,28.99,72.35,62.86,115.13,103.54c40.27,38.3,79.98,77.63,118.38,115.66c37.29,36.93,72.52,71.82,108.1,105.72
				c38.54,36.72,72.6,67.65,104.13,94.54c32.5,27.72,63.87,52.43,93.24,73.44c26.85,19.21,53.35,36.29,78.74,50.76
				c20.43,11.63,40.84,21.97,60.67,30.74c19.68,8.7,34.83,14.27,44.07,17.41L1430.79,822.6z"/>
		</g>
		<g>
			<path class="st2" d="M1427.88,829.83c5.09,1.69,10.59-1.07,12.28-6.16c1.69-5.09-1.07-10.59-6.16-12.28
				c-5.09-1.69-10.59,1.07-12.28,6.16C1420.02,822.65,1422.78,828.15,1427.88,829.83z"/>
		</g>
	</g>
	<g>
		<g>
			<path class="st2" d="M1675.43,847.4c-6.39,0-12.75-0.15-19.1-0.45c-33.72-1.59-68.15-7.46-102.36-17.43
				c-34.34-10.03-69.86-24.61-105.57-43.35c-34.22-17.97-68.71-39.61-105.46-66.17c-32.36-23.4-65.74-50.1-102.06-81.65
				c-29.39-25.53-59.69-53.3-95.38-87.4c-30.86-29.49-60.28-58.49-85.42-83.36c-51.76-51.19-96.46-95.39-127.8-125.38
				c-30.24-28.94-48.27-45.36-48.45-45.52l2.48-2.73c0.18,0.16,18.24,16.6,48.52,45.58c31.36,30.01,76.07,74.23,127.84,125.42
				c25.13,24.85,54.53,53.84,85.38,83.31c35.64,34.06,65.91,61.79,95.25,87.28c36.23,31.47,69.53,58.11,101.8,81.44
				c36.6,26.46,70.95,48.01,105.01,65.89c35.49,18.63,70.78,33.12,104.89,43.08c33.92,9.89,68.07,15.71,101.5,17.29
				c31.4,1.47,63.32-0.74,94.89-6.56c27.92-5.16,56.54-13.33,85.07-24.29c23.83-9.16,47.37-20.06,71.96-33.33
				c18.36-9.91,36.52-20.72,55.52-33.04c19.1-12.39,32.84-22.05,41-27.98l2.17,2.99c-8.2,5.95-21.99,15.66-41.16,28.09
				c-19.08,12.37-37.32,23.22-55.77,33.19c-24.74,13.35-48.41,24.32-72.39,33.53c-28.74,11.04-57.58,19.27-85.73,24.48
				C1726.6,845.03,1700.9,847.4,1675.43,847.4z"/>
		</g>
		<g>
			<path class="st2" d="M2011.34,727.64c4.33-3.17,5.27-9.25,2.1-13.58c-3.17-4.33-9.25-5.27-13.58-2.1
				c-4.33,3.17-5.27,9.25-2.1,13.58C2000.93,729.87,2007.01,730.81,2011.34,727.64z"/>
		</g>
	</g>
	<g class="st8">
		<g>
			<path class="st2" d="M1781.69,847.4c-23.94,0-48.08-2.09-72.01-6.24c-30.42-5.29-61.61-14.11-92.71-26.22
				c-30.53-11.9-62.2-27.44-94.11-46.2c-30.72-18.07-61.72-39-94.76-63.99c-29.99-22.68-60.96-48.2-94.69-78
				c-28.67-25.34-58.5-53.01-93.9-87.08c-33.4-32.16-66.35-64.79-98.22-96.35c-27.7-27.44-56.35-55.81-84.29-82.85
				c-32.48-31.43-60.98-58.16-87.13-81.72c-29.7-26.75-56.98-49.99-83.4-71.07c-27.12-21.63-53.67-41.16-78.92-58.03
				c-25.01-16.72-49.8-31.56-73.69-44.11c-22.8-11.97-45.59-22.28-67.74-30.65c-20.43-7.71-40.98-14.02-61.06-18.75
				c-32.61-7.67-66.92-11.63-99.2-11.45c-54.66,0.33-85.98,9.5-86.29,9.59l-1.06-3.54c0.31-0.09,32.08-9.42,87.33-9.75
				c32.56-0.17,67.18,3.81,100.07,11.55c20.24,4.76,40.93,11.12,61.52,18.89c22.28,8.42,45.21,18.79,68.15,30.83
				c24.01,12.61,48.91,27.51,74.03,44.31c25.33,16.94,51.96,36.52,79.17,58.22c26.48,21.12,53.81,44.41,83.57,71.21
				c26.19,23.59,54.72,50.35,87.23,81.81c27.96,27.06,56.61,55.44,84.32,82.88c31.86,31.55,64.8,64.18,98.18,96.32
				c35.35,34.03,65.15,61.67,93.78,86.97c33.66,29.74,64.56,55.2,94.47,77.83c32.93,24.9,63.8,45.76,94.4,63.75
				c31.74,18.66,63.22,34.12,93.57,45.94c30.87,12.02,61.83,20.78,92,26.03c29.85,5.18,60.04,7.12,89.74,5.77
				c28.64-1.31,57.84-5.73,86.81-13.13c27.24-6.97,55.23-16.82,83.19-29.3c25.97-11.59,51.76-25.23,78.83-41.71
				c24.1-14.68,48.21-30.99,73.72-49.88c21.98-16.28,44.18-33.85,67.85-53.74c19.62-16.47,39.64-34.02,61.23-53.65
				c37.64-34.23,70.11-65.61,99.59-94.42c40.23-39.33,67.57-66.47,80.28-79.15l2.61,2.61c-12.72,12.69-40.06,39.84-80.31,79.18
				c-29.5,28.84-62,60.24-99.68,94.51c-21.62,19.66-41.69,37.24-61.34,53.75c-23.73,19.93-45.99,37.55-68.03,53.88
				c-25.6,18.95-49.81,35.33-74,50.07c-27.21,16.57-53.14,30.28-79.25,41.93c-28.15,12.56-56.34,22.48-83.78,29.5
				c-29.21,7.47-58.66,11.92-87.55,13.24C1794.06,847.26,1787.88,847.4,1781.69,847.4z"/>
		</g>
		<g>
			<path class="st2" d="M2439.29,436.85c3.82-3.77,3.86-9.92,0.09-13.74c-3.77-3.82-9.92-3.86-13.74-0.09
				c-3.82,3.77-3.86,9.92-0.09,13.74C2429.32,440.58,2435.47,440.62,2439.29,436.85z"/>
		</g>
	</g>
	<g class="st6">
		<g>
			<path class="st2" d="M1835.86,847.4c-3.7,0-7.39-0.05-11.08-0.15c-23.36-0.65-47.13-3.34-70.64-7.99
				c-24.84-4.92-50.26-12.22-75.56-21.67c-26-9.72-52.82-22.09-79.73-36.77c-26.83-14.63-54.82-32.16-83.19-52.08
				c-27.65-19.42-55.77-41.09-85.96-66.24c-27.48-22.91-56.28-48.38-88.02-77.87c-48.06-44.65-96.45-92.57-143.24-138.91
				c-12.04-11.92-24.1-23.87-36.22-35.82c-26.33-25.97-57.61-56.64-90.03-87.21c-32.52-30.66-61.72-57-89.29-80.53
				c-30.99-26.45-59.72-49.23-87.83-69.63c-29.3-21.26-58.12-39.96-85.66-55.6c-27.99-15.89-55.84-29.28-82.78-39.81
				c-26.55-10.37-53.2-18.35-79.19-23.7c-47.51-9.77-97.63-11.25-144.96-4.26c-21.25,3.14-42.93,8.03-64.43,14.51
				c-19.38,5.85-38.4,12.85-58.16,21.42c-31.48,13.66-61.55,29.7-94.63,50.5c-26.35,16.57-46.41,30.97-60.95,41.67
				c-14.02,10.33-21.48,16.19-21.56,16.24l-2.28-2.9c0.07-0.06,7.57-5.95,21.65-16.32c14.58-10.74,34.72-25.19,61.17-41.82
				c33.24-20.89,63.47-37.02,95.12-50.76c19.89-8.63,39.04-15.68,58.56-21.57c21.68-6.54,43.53-11.46,64.96-14.63
				c47.75-7.05,98.32-5.57,146.24,4.29c26.2,5.4,53.05,13.43,79.79,23.88c27.1,10.59,55.11,24.06,83.26,40.04
				c27.66,15.71,56.6,34.49,86.01,55.82c28.19,20.46,57,43.3,88.06,69.81c27.61,23.57,56.86,49.96,89.43,80.65
				c32.44,30.59,63.75,61.28,90.09,87.26c12.12,11.95,24.19,23.9,36.22,35.83c46.77,46.32,95.14,94.22,143.15,138.83
				c31.7,29.44,60.44,54.87,87.87,77.74c30.11,25.09,58.15,46.7,85.71,66.06c28.26,19.84,56.14,37.29,82.84,51.86
				c26.76,14.59,53.42,26.89,79.26,36.55c25.11,9.39,50.34,16.62,74.98,21.51c23.31,4.62,46.87,7.28,70.03,7.93
				c40.4,1.1,81.62-3.92,122.53-14.94c31.31-8.45,62.23-20.14,94.55-35.76c26.54-12.83,46.49-24.53,60.9-33.28
				c5.74-3.49,10.36-6.36,13.82-8.56l1.97,3.12c-3.48,2.2-8.12,5.09-13.88,8.59c-14.48,8.8-34.53,20.55-61.21,33.45
				c-32.53,15.72-63.67,27.5-95.2,36C1910.85,842.29,1873.05,847.4,1835.86,847.4z"/>
		</g>
		<g>
			<path class="st2" d="M2122.37,760.98c4.54-2.85,5.91-8.85,3.06-13.4c-2.85-4.54-8.85-5.92-13.4-3.06
				c-4.54,2.85-5.91,8.85-3.06,13.4C2111.82,762.46,2117.82,763.83,2122.37,760.98z"/>
		</g>
	</g>
	<g class="st1">
		<g>
			<path class="st2" d="M1892.38,847c-33.9,0-67.91-3.89-100.2-11.65c-31.06-7.47-63.03-18.66-95.02-33.25
				c-30.87-14.09-61.67-31.14-94.18-52.14c-29.88-19.31-60.17-41.29-92.61-67.21c-28.44-22.73-57.99-48.06-90.33-77.44
				c-26.37-23.96-54.12-50.15-87.32-82.42c-26.48-25.73-52.37-51.38-77.42-76.18l-6.17-6.11
				c-52.77-52.25-104.17-102.86-153.02-147.61c-23.79-21.79-46.65-41.91-67.96-59.82c-21.04-17.67-41.65-34.11-61.27-48.86
				c-34.27-25.76-67.77-48.03-99.55-66.21c-21.59-12.34-43.13-23.23-64.02-32.36c-14.4-6.29-22.53-9.29-22.61-9.32l1.27-3.47
				c0.08,0.03,8.3,3.06,22.82,9.4c21.01,9.18,42.67,20.13,64.37,32.54c31.92,18.26,65.55,40.62,99.94,66.46
				c19.68,14.79,40.35,31.27,61.43,48.99c21.35,17.94,44.25,38.1,68.08,59.92c48.9,44.79,100.33,95.43,153.13,147.71l6.17,6.11
				c25.04,24.8,50.92,50.43,77.39,76.15c33.17,32.24,60.89,58.4,87.23,82.33c32.29,29.33,61.77,54.61,90.15,77.29
				c32.34,25.84,62.54,47.75,92.31,66.99c32.35,20.9,63.01,37.87,93.71,51.88c31.77,14.49,63.51,25.6,94.35,33.02
				c60.61,14.56,127.31,15.38,187.81,2.3c30.16-6.53,61.16-16.58,92.12-29.87c29.57-12.7,59.01-28.15,90-47.23
				c28.26-17.41,56.76-37.19,87.12-60.48c26.62-20.43,53.93-42.99,83.48-68.97c24.46-21.51,50.32-45.25,79.08-72.6
				c27.66-26.31,54.04-52.17,73.92-71.77c15.3-15.07,30.14-29.76,44.52-43.99c30.12-29.81,58.58-57.96,84.87-83.38
				c36.93-35.7,70.51-66.95,99.8-92.89c22.23-19.68,43.85-37.98,64.26-54.39c6.48-5.21,11.67-9.31,15.44-12.26l2.28,2.91
				c-3.76,2.95-8.94,7.03-15.4,12.23c-20.36,16.38-41.94,34.64-64.13,54.28c-29.25,25.9-62.79,57.12-99.69,92.78
				c-26.28,25.4-54.72,53.55-84.84,83.35c-14.38,14.23-29.22,28.92-44.52,43.99c-19.9,19.61-46.29,45.49-73.97,71.81
				c-28.79,27.38-54.69,51.15-79.18,72.69c-29.62,26.04-56.99,48.65-83.67,69.13c-30.46,23.37-59.06,43.22-87.43,60.7
				c-31.14,19.18-60.74,34.71-90.48,47.48c-31.19,13.38-62.41,23.51-92.8,30.09C1952.84,843.9,1922.65,847,1892.38,847z"/>
		</g>
		<g>
			<path class="st2" d="M2802.27,205.69c4.21-3.32,4.94-9.43,1.62-13.65c-3.32-4.22-9.43-4.94-13.65-1.62
				c-4.21,3.32-4.94,9.43-1.62,13.65C2791.94,208.28,2798.05,209.01,2802.27,205.69z"/>
		</g>
	</g>
	<g class="st8">
		<g>
			<path class="st2" d="M1525.59,847.4c-7.59,0-15.17-0.21-22.72-0.63c-20.78-1.16-41.92-3.95-62.84-8.29
				c-22.12-4.59-44.73-11.06-67.21-19.23c-23.19-8.44-47.05-18.99-70.93-31.35c-24.01-12.44-48.91-27.19-74.02-43.82
				c-24.5-16.23-50.23-34.96-76.48-55.65c-24.97-19.7-50.59-41.25-78.32-65.9c-24.42-21.7-50.43-45.79-79.54-73.64
				c-28.18-26.97-56.32-54.66-80.14-78.2l-25.44-25.17c-43.88-43.46-89.26-88.4-134.13-130.42c-28.17-26.38-53.74-49.39-78.17-70.34
				c-26.8-22.98-51.74-43.08-76.26-61.45c-25.18-18.87-49.98-35.89-73.71-50.6c-23.86-14.79-47.59-27.82-70.53-38.75
				c-22.42-10.67-44.87-19.71-66.73-26.86c-20.82-6.81-41.79-12.12-62.32-15.8c-35.73-6.4-73.41-8.15-108.98-5.06
				c-28.09,2.45-55.58,7.64-84.04,15.87c-24.03,6.95-42.4,14.19-54.12,19.03c-12.46,5.15-19.07,8.28-19.13,8.31l-1.59-3.34
				c0.07-0.03,6.74-3.2,19.31-8.39c11.81-4.88,30.3-12.17,54.51-19.17c28.69-8.3,56.42-13.53,84.75-16
				c35.89-3.12,73.91-1.36,109.95,5.1c20.69,3.71,41.83,9.07,62.81,15.93c22.01,7.2,44.62,16.29,67.17,27.03
				c23.06,10.98,46.92,24.09,70.89,38.94c23.83,14.77,48.72,31.86,73.98,50.79c24.58,18.42,49.59,38.57,76.45,61.6
				c24.48,20.99,50.09,44.03,78.29,70.45c44.9,42.06,90.3,87.02,134.2,130.49L916,468.05c23.8,23.53,51.93,51.21,80.09,78.16
				c29.07,27.82,55.06,51.88,79.44,73.55c27.67,24.6,53.23,46.11,78.15,65.76c26.17,20.63,51.81,39.3,76.23,55.47
				c24.99,16.56,49.78,31.23,73.68,43.61c23.74,12.3,47.46,22.78,70.5,31.16c22.31,8.11,44.75,14.54,66.7,19.09
				c20.74,4.3,41.7,7.06,62.29,8.22c36.04,2.01,72.7-0.83,108.98-8.44c27.96-5.87,55.47-14.37,84.08-25.97
				c24-9.73,42.4-19.02,54.15-25.17c4.49-2.34,8.21-4.34,11.14-5.93l1.76,3.24c-2.94,1.6-6.68,3.6-11.19,5.96
				c-11.82,6.18-30.33,15.52-54.48,25.31c-28.82,11.68-56.53,20.24-84.71,26.16C1583.82,844.33,1554.57,847.4,1525.59,847.4z"/>
		</g>
		<g>
			<path class="st2" d="M1766.46,787.89c4.72-2.56,6.47-8.46,3.91-13.18c-2.56-4.72-8.46-6.47-13.18-3.91
				c-4.72,2.56-6.47,8.46-3.91,13.18C1755.84,788.7,1761.74,790.45,1766.46,787.89z"/>
		</g>
	</g>
	<g class="st8">
		<g>
			<path class="st2" d="M1625.11,847.35c-21.9,0-44.06-1.7-65.45-5.06c-36.79-5.79-74.63-16.74-112.47-32.56
				c-19.43-8.13-39.4-17.75-59.35-28.61c-19.78-10.77-40.23-23.12-60.77-36.71c-19.94-13.19-40.7-28.03-61.71-44.12
				c-20.16-15.43-40.49-31.92-62.17-50.39c-36.87-31.43-76.2-67.44-123.78-113.33c-31.7-30.58-62.86-61.44-92.99-91.29l-26.84-26.57
				c-33.81-33.41-73.56-72.4-112-108.25c-36-33.57-69.74-63.33-100.3-88.46c-29.29-24.08-57.79-45.71-84.72-64.29
				c-22.15-15.27-44.11-29.1-65.27-41.1c-34.69-19.65-56.57-28.75-56.79-28.84l1.41-3.41c0.22,0.09,22.29,9.26,57.2,29.04
				c21.26,12.05,43.32,25.93,65.55,41.27c27.01,18.63,55.6,40.33,84.97,64.48c30.61,25.18,64.42,54.99,100.47,88.61
				c38.48,35.88,78.25,74.9,112.08,108.33l26.84,26.57c30.12,29.84,61.27,60.69,92.95,91.25c47.53,45.84,86.81,81.8,123.62,113.18
				c21.62,18.43,41.91,34.88,62.02,50.27c20.94,16.03,41.64,30.83,61.5,43.97c20.46,13.53,40.81,25.83,60.5,36.55
				c19.84,10.8,39.69,20.37,59.01,28.45c37.56,15.7,75.12,26.57,111.62,32.32c32.74,5.14,67.29,6.36,99.94,3.51
				c27.84-2.43,56.26-7.82,84.49-16.02c21.69-6.3,43.01-14.09,65.18-23.82c22.97-10.08,39.24-18.52,48.85-23.82l1.78,3.23
				c-9.67,5.34-26.06,13.83-49.15,23.97c-22.32,9.79-43.79,17.64-65.64,23.98c-28.45,8.26-57.12,13.69-85.2,16.15
				C1648.89,846.85,1637.03,847.35,1625.11,847.35z"/>
		</g>
		<g>
			<path class="st2" d="M1863.83,788.76c4.69-2.62,6.36-8.54,3.75-13.22s-8.54-6.36-13.22-3.75c-4.69,2.62-6.36,8.54-3.75,13.22
				C1853.23,789.7,1859.15,791.38,1863.83,788.76z"/>
		</g>
	</g>
	<g class="st9">
		<g class="st10">
			<path class="st11" d="M1727.52,847.27c-21.31,0-42.53-1.59-63.23-4.78c-25.79-3.98-52.16-10.5-78.38-19.38
				c-26.2-8.88-53.2-20.43-80.24-34.35c-26.35-13.56-53.75-29.89-81.46-48.53c-26.55-17.87-53.39-37.77-82.04-60.83
				c-25.97-20.91-52.79-43.91-81.99-70.32c-24.6-22.26-51.2-47.22-81.32-76.33c-30.8-29.78-61.24-59.92-90.67-89.08
				c-22.17-21.96-45.09-44.66-67.39-66.43c-28.29-27.61-52.97-51.17-75.47-72.05c-25.8-23.93-49.43-45.01-72.24-64.45
				c-23.59-20.09-46.59-38.61-68.37-55.04c-21.73-16.4-43.22-31.46-63.86-44.76c-19.83-12.78-39.58-24.38-58.71-34.49
				c-17.77-9.4-35.58-17.81-52.92-25c-28.88-11.97-57.8-21.13-85.97-27.2c-45.86-9.87-74.47-9.34-74.75-9.34l-0.08-3.69
				c0.29-0.01,29.29-0.55,75.62,9.42c28.39,6.12,57.53,15.34,86.61,27.4c17.45,7.24,35.36,15.7,53.23,25.15
				c19.22,10.16,39.06,21.82,58.98,34.65c20.72,13.35,42.28,28.46,64.08,44.92c21.84,16.48,44.9,35.04,68.54,55.18
				c22.86,19.47,46.52,40.58,72.36,64.55c22.52,20.9,47.23,44.48,75.54,72.11c22.31,21.77,45.24,44.48,67.41,66.45
				c29.43,29.15,59.85,59.28,90.64,89.05c30.08,29.08,56.65,54.02,81.23,76.25c29.15,26.37,55.92,49.32,81.83,70.18
				c28.57,23,55.32,42.84,81.79,60.64c27.58,18.56,54.87,34.81,81.09,48.31c26.88,13.83,53.71,25.32,79.74,34.14
				c26.01,8.81,52.18,15.28,77.76,19.23c48.06,7.41,98.95,6.11,147.15-3.75c22.42-4.59,45.37-11.14,68.2-19.46
				c21.17-7.72,42.03-16.81,63.77-27.79c19.42-9.8,38.62-20.65,58.7-33.16c17.47-10.88,34.8-22.52,52.98-35.57
				c36.83-26.45,66.82-51.28,86.18-67.65c34.43-29.13,57.65-50.37,68.42-60.43l2.52,2.7c-10.8,10.09-34.06,31.36-68.56,60.55
				c-19.4,16.41-49.47,41.3-86.41,67.83c-18.24,13.1-35.64,24.78-53.18,35.71c-20.18,12.57-39.47,23.47-58.99,33.32
				c-21.87,11.04-42.86,20.19-64.17,27.96c-23,8.39-46.12,14.98-68.72,19.61C1784.88,844.4,1756.12,847.26,1727.52,847.27z"/>
		</g>
		<g class="st10">
			<path class="st11" d="M2217.7,599.77c3.93-3.65,4.16-9.8,0.5-13.73c-3.65-3.93-9.8-4.16-13.73-0.5c-3.93,3.65-4.16,9.8-0.5,13.73
				C2207.62,603.2,2213.77,603.42,2217.7,599.77z"/>
		</g>
	</g>
</g>
</svg>
